<svg width="21" height="20" viewBox="0 0 21 20" fill="none" xmlns="http://www.w3.org/2000/svg">
<path d="M20.9991 14.9734V17.9841C21.0038 19.0923 20.0624 19.9947 18.8957 19.9991C18.8294 19.9991 18.7632 19.9966 18.6969 19.9909C15.448 19.6553 12.327 18.5999 9.58488 16.9098C7.03359 15.3689 4.87052 13.3129 3.25004 10.8879C1.46526 8.27089 0.354902 5.28987 0.0084135 2.18795C-0.0962619 1.08345 0.760354 0.108045 1.92172 0.00792176C1.984 0.00288414 2.04693 -0.000264377 2.10987 -0.000264377H5.27729C6.3373 -0.0103396 7.24095 0.728302 7.38935 1.72575C7.52318 2.6892 7.77095 3.63501 8.1287 4.54556C8.41888 5.27917 8.23338 6.10597 7.65369 6.66325L6.31279 7.93777C7.816 10.4503 10.0042 12.5308 12.6476 13.9596L13.9885 12.6851C14.5749 12.1341 15.4447 11.9578 16.2165 12.2336C17.1745 12.5736 18.1696 12.8092 19.1832 12.9364C20.2452 13.0787 21.0256 13.9546 20.9991 14.9734Z" fill="white"/>
</svg>
