<svg width="13" height="13" viewBox="0 0 13 13" fill="none" xmlns="http://www.w3.org/2000/svg">
<path fill-rule="evenodd" clip-rule="evenodd" d="M6.38053 0.729554C5.49124 0.814721 4.82982 1.00281 4.08099 1.38346C3.19393 1.83434 2.39794 2.54733 1.81754 3.41085C1.57179 3.77647 1.27149 4.3937 1.1273 4.82952C1.01092 5.18131 0.918465 5.58165 0.861962 5.97853C0.822705 6.25432 0.822705 7.18004 0.861962 7.45583C0.960279 8.14652 1.14295 8.75156 1.42835 9.33176C1.75125 9.9882 2.06753 10.4292 2.58969 10.951C3.10615 11.4671 3.55432 11.7894 4.18658 12.0994C4.62774 12.3156 4.91258 12.4209 5.35981 12.533C6.53338 12.8272 7.71039 12.7708 8.85697 12.3654C9.20453 12.2426 9.81123 11.9387 10.1231 11.7313C10.8244 11.265 11.4681 10.6055 11.9275 9.88282C12.0965 9.61693 12.3681 9.05595 12.4789 8.74394C13.0302 7.19167 12.9342 5.52563 12.2098 4.06993C11.9174 3.48246 11.5919 3.02204 11.1349 2.54947C10.6282 2.02538 10.1311 1.66379 9.46614 1.33546C8.77109 0.992278 8.12349 0.809093 7.35431 0.738066C7.11525 0.716 6.57179 0.71124 6.38053 0.729554ZM7.05969 3.27606C7.11467 3.30512 7.19288 3.37474 7.23352 3.43078L7.30738 3.53269L7.31372 5.1425L7.32008 6.75231L8.54761 7.98341C9.59988 9.03874 9.77906 9.2283 9.8025 9.31103C9.84441 9.459 9.83559 9.55722 9.76829 9.6922C9.6631 9.90315 9.44232 10.0056 9.2091 9.95159C9.09429 9.92505 9.05029 9.88396 7.75734 8.59623C7.01044 7.85231 6.40392 7.22959 6.37837 7.18039C6.33416 7.0953 6.33294 7.03653 6.33904 5.31232L6.34533 3.5321L6.41573 3.43223C6.55787 3.23057 6.84285 3.16147 7.05969 3.27606Z" fill="white"/>
</svg>
