<svg width="47" height="47" viewBox="0 0 47 47" fill="none" xmlns="http://www.w3.org/2000/svg">
<path d="M21.2795 1.517C22.5171 0.802474 24.0419 0.802474 25.2795 1.517L41.172 10.6926C42.4096 11.4071 43.172 12.7276 43.172 14.1567V32.5078C43.172 33.9368 42.4096 35.2573 41.172 35.9719L25.2795 45.1474C24.0419 45.8619 22.5171 45.8619 21.2795 45.1474L5.38695 35.9719C4.14935 35.2573 3.38695 33.9368 3.38695 32.5078V14.1567C3.38695 12.7276 4.14935 11.4071 5.38695 10.6926L21.2795 1.517Z" fill="url(#paint0_radial_2073_247)"/>
<path d="M21.7795 2.38303C22.7077 1.84713 23.8513 1.84713 24.7795 2.38303L40.672 11.5586C41.6002 12.0945 42.172 13.0849 42.172 14.1567V32.5078C42.172 33.5796 41.6002 34.5699 40.672 35.1058L24.7795 44.2814C23.8513 44.8173 22.7077 44.8173 21.7795 44.2814L5.88695 35.1058C4.95875 34.5699 4.38695 33.5796 4.38695 32.5078V14.1567C4.38695 13.0849 4.95875 12.0945 5.88695 11.5586L21.7795 2.38303Z" stroke="white" stroke-opacity="0.09" stroke-width="2"/>
<path d="M28.2205 28.4087H25.0205L23.2605 25.4327L21.5005 28.4087H18.2845L21.6605 22.6967L18.4125 17.2087H21.6285L23.2605 19.9767L24.8925 17.2087H28.1085L24.8605 22.7127L28.2205 28.4087Z" fill="white"/>
<defs>
<radialGradient id="paint0_radial_2073_247" cx="0" cy="0" r="1" gradientUnits="userSpaceOnUse" gradientTransform="translate(11.6281 52.2943) rotate(-61.0278) scale(67.3514 6875.21)">
<stop offset="0.0001" stop-color="#FF4848"/>
<stop offset="1" stop-color="#860C0C" stop-opacity="0.83"/>
</radialGradient>
</defs>
</svg>
