<svg width="23" height="22" viewBox="0 0 23 22" fill="none" xmlns="http://www.w3.org/2000/svg">
<path d="M4.51141 21.4182C4.48798 20.8813 4.46774 20.3443 4.44037 19.8072C4.37361 18.5087 4.30421 17.21 4.23504 15.9117C4.18017 14.8828 4.12343 13.854 4.06856 12.825C4.06599 12.7735 4.07033 12.7218 4.07224 12.6503C5.08957 12.7433 5.96318 12.4902 6.69272 11.8247C7.4176 11.1631 7.76827 10.3629 7.70389 9.43839C7.63952 8.51683 7.19837 7.74807 6.38214 7.19063C5.56911 6.63601 4.65994 6.45933 3.66868 6.66759C3.6303 6.08865 3.59328 5.53267 3.55524 4.96301C4.03758 4.95916 4.49612 4.95486 4.95507 4.95282C6.41194 4.9475 7.85973 5.05639 9.28754 5.32034C9.93567 5.4402 10.5728 5.61553 11.2054 5.79674C11.7144 5.94241 12.2203 6.10823 12.7063 6.30981C14.4543 7.03601 16.0123 8.02311 17.3537 9.29147C17.8743 9.7835 18.377 10.2911 18.888 10.7915C18.9118 10.8148 18.9411 10.8332 18.9853 10.8677C17.1285 12.3793 15.279 13.8841 13.4143 15.4023C12.6541 14.0223 11.4676 13.3836 9.81183 13.6256C8.57088 13.8069 7.68256 14.4858 7.28677 15.5667C6.73073 17.0865 7.26053 18.3236 8.69656 19.2464C8.20378 19.6599 7.70904 20.0734 7.21676 20.4896C6.69137 20.933 6.1726 21.3828 5.6428 21.8222C5.35736 22.0593 5.04482 22.0546 4.74724 21.8318C4.72726 21.8171 4.70261 21.8076 4.68054 21.7954C4.62426 21.6694 4.56769 21.5442 4.51141 21.4182ZM11.4329 10.9122C11.8473 11.8738 13.0522 12.2951 13.9663 11.9441C15.1093 11.5047 15.531 10.4422 15.1004 9.5269C14.6325 8.53256 13.6054 8.14501 12.4721 8.55712C11.4849 8.91592 11.0213 10.0067 11.4329 10.9122ZM10.7569 7.91988C10.9974 7.78644 11.1962 7.53675 11.1843 7.31434C11.1707 7.06374 11.053 6.84745 10.7747 6.74648C10.1857 6.53279 9.60413 6.30042 9.02 6.07653C8.81954 5.99957 8.61796 6.01858 8.44447 6.12475C7.97769 6.41089 8.05125 7.00715 8.58621 7.2196C9.13403 7.43658 9.68309 7.65197 10.2396 7.84982C10.3982 7.90608 10.5838 7.89849 10.7569 7.91988ZM8.98567 11.854C9.11944 12.1562 9.52725 12.3298 9.83378 12.1955C10.2247 12.0241 10.3483 11.6989 10.1911 11.3715C10.0421 11.0609 9.71288 10.9417 9.34014 11.0706C9.00468 11.186 8.84528 11.4996 8.98567 11.854Z" fill="white"/>
<path d="M3.49346 0.0963411C3.94334 0.0712364 4.39358 0.0412642 4.84349 0.0220225C6.20337 -0.0359967 7.55798 0.0170536 8.90205 0.223833C9.64275 0.337925 10.3838 0.458389 11.1147 0.615073C11.6622 0.732606 12.1992 0.898265 12.7306 1.06974C13.3791 1.27902 14.04 1.47484 14.6545 1.75248C15.6149 2.18666 16.5561 2.66238 17.4779 3.16323C18.6541 3.80172 19.7174 4.59051 20.6978 5.46272C21.3822 6.0711 22.0194 6.72679 22.647 7.38553C23.1067 7.86838 23.0899 8.8067 22.7526 9.32124C22.4305 9.81236 21.9789 10.1251 21.4063 10.25C20.8141 10.3794 20.2344 10.2512 19.7693 9.86952C19.4606 9.61564 19.1925 9.31875 18.9152 9.03409C18.157 8.25763 17.3291 7.54829 16.4023 6.95044C15.6451 6.46182 14.868 5.98904 14.0558 5.58497C13.339 5.22843 12.5656 4.96527 11.8083 4.68129C10.8847 4.33505 9.91973 4.11354 8.93994 3.95316C7.64393 3.74105 6.33861 3.63975 5.02005 3.70143C4.53331 3.72407 4.03845 3.74569 3.55857 3.68796C3.00416 3.62198 2.59431 3.30653 2.29286 2.86476C1.9235 2.32407 1.93599 1.75452 2.15056 1.18712C2.2761 0.856386 2.53049 0.583857 2.85575 0.382781C2.88275 0.366018 2.90039 0.336907 2.92236 0.313206C3.11284 0.240676 3.30386 0.167942 3.49433 0.0954236L3.49346 0.0963411Z" fill="white"/>
<path d="M12.2022 15.8813C12.298 16.1403 12.2304 16.3637 11.9997 16.5514C11.2942 17.1248 10.5857 17.6946 9.8872 18.2753C9.79696 18.3504 9.7397 18.3468 9.64198 18.3139C8.6888 17.9901 8.1894 16.9424 8.49851 16.0519C8.97191 14.6862 10.8772 14.3551 11.8717 15.3929C12.0076 15.5345 12.0934 15.7176 12.2022 15.8813Z" fill="white"/>
<path d="M3.97402 11.4192C3.89834 10.2408 3.82244 9.07196 3.74713 7.90581C4.69982 7.64966 5.49116 7.86008 6.04757 8.60779C6.54488 9.27615 6.53581 10.0035 6.04082 10.6636C5.57821 11.2806 4.93179 11.5933 3.97402 11.4192Z" fill="white"/>
<path d="M12.6543 10.4328C12.5189 10.1241 12.674 9.7909 13.0123 9.66334C13.3429 9.53861 13.752 9.68519 13.8846 9.97607C14.0258 10.2865 13.8483 10.6755 13.5085 10.7995C13.1511 10.9302 12.8079 10.7823 12.6543 10.4328Z" fill="white"/>
</svg>
