<svg width="47" height="47" viewBox="0 0 47 47" fill="none" xmlns="http://www.w3.org/2000/svg">
<path d="M21.8449 1.8671C23.0825 1.15257 24.6073 1.15257 25.8449 1.8671L41.7374 11.0427C42.975 11.7572 43.7374 13.0777 43.7374 14.5068V32.8579C43.7374 34.2869 42.975 35.6074 41.7374 36.322L25.8449 45.4975C24.6073 46.212 23.0825 46.212 21.8449 45.4975L5.95238 36.322C4.71478 35.6074 3.95238 34.2869 3.95238 32.8579V14.5068C3.95238 13.0777 4.71478 11.7572 5.95238 11.0427L21.8449 1.8671Z" fill="url(#paint0_radial_2433_806)"/>
<path d="M22.3449 2.73313C23.2731 2.19723 24.4167 2.19723 25.3449 2.73313L41.2374 11.9087C42.1656 12.4446 42.7374 13.435 42.7374 14.5068V32.8579C42.7374 33.9297 42.1656 34.92 41.2374 35.4559L25.3449 44.6315C24.4167 45.1674 23.2731 45.1674 22.3449 44.6315L6.45238 35.4559C5.52418 34.92 4.95238 33.9297 4.95238 32.8579V14.5068C4.95238 13.435 5.52418 12.4446 6.45238 11.9087L22.3449 2.73313Z" stroke="white" stroke-opacity="0.09" stroke-width="2"/>
<path fill-rule="evenodd" clip-rule="evenodd" d="M24.6137 15.0205C23.8735 15.1813 23.2631 15.7156 23.0611 16.3796C22.9822 16.639 22.9679 17.0923 23.0301 17.3623C23.1702 17.9703 23.6867 18.5284 24.3122 18.7479C24.644 18.8642 25.129 18.8917 25.4706 18.8135C26.3617 18.6094 27.0134 17.825 27.0134 16.9564C27.0134 16.4172 26.8467 16.012 26.4636 15.6195C26.1806 15.3296 26.0085 15.218 25.6543 15.0945C25.3902 15.0025 24.8677 14.9653 24.6137 15.0205ZM22.6991 20.6516C22.192 20.7059 21.5607 20.8923 20.5926 21.2733L20.098 21.4681L19.9861 21.9279C19.9246 22.1808 19.8792 22.3928 19.8853 22.3991C19.8914 22.4053 20.0544 22.3579 20.2475 22.2936C20.8823 22.0824 21.5025 22.0647 21.8796 22.2472C22.1485 22.3773 22.2725 22.6768 22.2724 23.1959C22.2723 23.6898 22.1583 24.2008 21.5751 26.3206C21.1345 27.9222 21.0334 28.361 20.9744 28.9288C20.8801 29.8347 21.0494 30.4279 21.5466 30.9339C22.0366 31.4326 22.6242 31.6309 23.5999 31.627C24.2235 31.6245 24.4873 31.5825 25.0095 31.4027C25.5074 31.2311 26.519 30.8298 26.5589 30.788C26.5923 30.753 26.8031 29.889 26.7832 29.8686C26.7781 29.8634 26.6787 29.8947 26.5623 29.9382C25.9666 30.1608 25.2537 30.2075 24.8507 30.0503C24.6379 29.9673 24.5368 29.8712 24.441 29.6608C24.3829 29.5334 24.3746 29.4574 24.3767 29.0752C24.38 28.4748 24.4498 28.1473 25.0075 26.1144C25.5118 24.276 25.5686 24.0405 25.6235 23.5604C25.7529 22.4269 25.6201 21.8732 25.0886 21.3308C24.8846 21.1227 24.7575 21.0236 24.5797 20.934C24.0546 20.6693 23.4215 20.5743 22.6991 20.6516Z" fill="white"/>
<defs>
<radialGradient id="paint0_radial_2433_806" cx="0" cy="0" r="1" gradientUnits="userSpaceOnUse" gradientTransform="translate(12.1935 52.6444) rotate(-61.0278) scale(67.3514 6875.21)">
<stop offset="0.0001" stop-color="#4891FF"/>
<stop offset="1" stop-color="#0C3686" stop-opacity="0.83"/>
</radialGradient>
</defs>
</svg>
