<svg width="12" height="12" viewBox="0 0 12 12" fill="none" xmlns="http://www.w3.org/2000/svg">
<path fill-rule="evenodd" clip-rule="evenodd" d="M6.02153 0.647216C4.98938 0.771047 4.14107 1.28363 3.58004 2.12252C3.10683 2.83005 2.92277 3.75222 3.10907 4.48202C3.33305 5.35941 3.95376 6.55457 5.00116 8.12522C5.41144 8.74048 6.30235 9.983 6.33322 9.983C6.36396 9.983 7.27301 8.71427 7.6797 8.10372C8.87718 6.30614 9.52375 4.97786 9.62239 4.11268C9.65988 3.78393 9.58555 3.24421 9.44959 2.85813C9.02462 1.65136 7.97213 0.808282 6.6992 0.654977C6.52752 0.634317 6.16392 0.630147 6.02153 0.647216ZM6.67048 2.8936C7.22382 3.07001 7.54555 3.66586 7.39016 4.22637C7.27795 4.63101 6.92273 4.94813 6.50191 5.01935C5.86272 5.12751 5.23694 4.59885 5.23694 3.95069C5.23694 3.192 5.95221 2.66458 6.67048 2.8936ZM2.60373 6.81032C1.77028 7.2133 1.17176 7.75448 0.94661 8.30864C0.665684 9.00007 0.910519 9.75427 1.60418 10.3343C2.54986 11.1252 4.08727 11.5837 5.95704 11.6325C8.17999 11.6905 10.2602 11.1278 11.2099 10.2114C11.6154 9.8201 11.7989 9.45663 11.8293 8.9844C11.8838 8.13969 11.2367 7.37391 10.0103 6.83168L9.80732 6.74197L9.62744 7.07887C9.52852 7.26417 9.40357 7.48648 9.34978 7.5729C9.296 7.65933 9.25544 7.73236 9.25967 7.73522C9.26391 7.73805 9.36133 7.77692 9.47618 7.8216C10.2493 8.12223 10.7256 8.52842 10.7272 8.88841C10.7298 9.46624 9.48849 10.1446 7.95227 10.405C6.19694 10.7026 4.22903 10.4908 2.94766 9.86639C2.29626 9.54899 1.93868 9.20235 1.93878 8.88841C1.93889 8.55654 2.33514 8.18913 3.0776 7.8325C3.2544 7.74758 3.40143 7.67635 3.40433 7.67425C3.40723 7.67212 3.34589 7.56473 3.26801 7.43559C3.19013 7.30645 3.06919 7.08711 2.99925 6.94818C2.92932 6.80926 2.86492 6.69566 2.85613 6.69577C2.84736 6.69588 2.73378 6.74743 2.60373 6.81032Z" fill="white"/>
</svg>
