<svg width="22" height="17" viewBox="0 0 22 17" fill="none" xmlns="http://www.w3.org/2000/svg">
<path d="M0.618164 12.486C0.618164 12.1633 0.618164 11.841 0.618164 11.5186C0.63127 11.4878 0.651965 11.4576 0.656793 11.4253C0.872359 9.96273 1.62529 8.87577 2.88523 8.15114C3.02215 8.07257 3.02526 8.00453 2.97835 7.87124C2.66 6.96703 2.57516 6.0337 2.78658 5.10142C3.26807 2.97521 4.54905 1.55821 6.63331 1.03981C8.71033 0.523517 10.4749 1.18221 11.87 2.83316C11.9628 2.94295 12.0245 2.96294 12.157 2.8998C12.962 2.51504 13.8046 2.43156 14.6489 2.7104C16.042 3.17058 16.8722 4.15021 17.126 5.62578C17.1457 5.74083 17.1167 5.86604 17.3195 5.90006C20.3202 6.39952 22.2848 9.24475 21.6988 12.2254C20.942 16.0758 16.4766 17.8117 13.3859 15.4529C13.2555 15.3537 13.1862 15.3544 13.0606 15.4571C11.5292 16.7159 9.3998 16.7773 7.80702 15.6086C7.68389 15.5185 7.61008 15.5224 7.4904 15.6093C6.56536 16.2817 5.53548 16.5504 4.4066 16.4006C2.59585 16.16 1.16311 14.8447 0.734052 13.0363C0.690939 12.8539 0.656449 12.6694 0.618164 12.486ZM9.51534 6.46161C7.84945 6.45985 6.52294 7.80565 6.52156 9.49904C6.52018 11.1812 7.84117 12.5316 9.49395 12.5382C11.1598 12.5449 12.4929 11.2012 12.4984 9.51062C12.5039 7.81828 11.1785 6.46336 9.51534 6.46161ZM15.0514 11.9153C15.0966 11.8434 15.1242 11.7968 15.1549 11.7519C15.4367 11.3387 15.7623 10.9529 15.9561 10.4832C16.3776 9.46186 15.6384 8.45558 14.5551 8.57238C13.9881 8.63341 13.44 9.19916 13.4255 9.7379C13.4186 9.99745 13.5763 10.2114 13.8111 10.2619C14.0722 10.3177 14.2968 10.2023 14.4006 9.95641C14.4223 9.9052 14.433 9.84944 14.4561 9.79928C14.5334 9.62987 14.7058 9.56042 14.8686 9.63057C15.0255 9.69827 15.0904 9.85294 15.0286 10.0308C14.9642 10.2174 14.8576 10.3815 14.7441 10.5401C14.384 11.0441 14.0201 11.5456 13.6611 12.0504C13.5276 12.2384 13.4797 12.4428 13.5935 12.6599C13.7059 12.8746 13.8905 12.956 14.1233 12.9549C14.633 12.9521 15.1428 12.9563 15.6522 12.9542C15.9978 12.9528 16.211 12.761 16.2175 12.4527C16.2244 12.1314 16.0147 11.9262 15.6626 11.9167C15.4708 11.9115 15.279 11.9157 15.0511 11.9157L15.0514 11.9153Z" fill="white"/>
<path d="M9.48203 11.5035C8.38523 11.472 7.50262 10.5463 7.53918 9.46641C7.57712 8.34789 8.4856 7.457 9.54757 7.49663C10.6402 7.53767 11.5063 8.4454 11.4808 9.52253C11.4542 10.6365 10.5481 11.5344 9.48203 11.5035Z" fill="white"/>
</svg>
