<svg width="47" height="47" viewBox="0 0 47 47" fill="none" xmlns="http://www.w3.org/2000/svg">
<path d="M21.8449 1.31351C23.0825 0.598983 24.6073 0.598983 25.8449 1.31351L41.7374 10.4891C42.975 11.2036 43.7374 12.5241 43.7374 13.9532V32.3043C43.7374 33.7333 42.975 35.0538 41.7374 35.7684L25.8449 44.9439C24.6073 45.6585 23.0825 45.6585 21.8449 44.9439L5.95238 35.7684C4.71478 35.0538 3.95238 33.7333 3.95238 32.3043V13.9532C3.95238 12.5241 4.71478 11.2036 5.95238 10.4891L21.8449 1.31351Z" fill="url(#paint0_radial_3607_241)"/>
<path d="M22.3449 2.17954C23.2731 1.64364 24.4167 1.64364 25.3449 2.17954L41.2374 11.3551C42.1656 11.891 42.7374 12.8814 42.7374 13.9532V32.3043C42.7374 33.3761 42.1656 34.3664 41.2374 34.9023L25.3449 44.0779C24.4167 44.6138 23.2731 44.6138 22.3449 44.0779L6.45238 34.9023C5.52418 34.3664 4.95238 33.3761 4.95238 32.3043V13.9532C4.95238 12.8814 5.52418 11.891 6.45238 11.3551L22.3449 2.17954Z" stroke="white" stroke-opacity="0.09" stroke-width="2"/>
<g clip-path="url(#clip0_3607_241)">
<path d="M35.2713 23.4403C35.2773 23.4387 35.2829 23.4383 35.2881 23.4387C35.2881 23.4307 35.2873 23.4231 35.2865 23.4155C35.2677 23.215 35.2436 23.02 35.1384 22.8363C34.7092 22.0858 34.0623 21.7208 33.2044 21.718C32.6587 21.716 32.1135 21.7196 31.5678 21.7168C31.3192 21.7156 31.2996 21.6956 31.298 21.4478C31.2952 20.9619 31.2976 20.476 31.2968 19.99C31.296 19.2812 31.0446 19.0266 30.3436 19.0258C29.8504 19.0254 29.3572 19.0266 28.864 19.0254C28.5678 19.0246 28.5566 19.0186 28.4929 18.7264C28.2992 17.8406 27.8792 17.0765 27.2479 16.4309C26.5834 15.7512 25.7883 15.2985 24.8552 15.0964C24.5801 15.0368 24.5721 15.0232 24.5701 14.7374C24.5685 14.5132 24.5693 14.2887 24.5701 14.0645C24.5713 13.7403 24.5757 13.7351 24.892 13.7347C25.8484 13.7339 26.8047 13.7375 27.7611 13.7331C28.3148 13.7307 28.6018 13.4417 28.605 12.8857C28.6094 12.1456 28.6062 11.4052 28.6058 10.6651C28.6058 10.5158 28.6146 10.3657 28.5962 10.2168C28.5506 9.85093 28.3032 9.60797 27.9421 9.60677C26.5449 9.60077 25.1474 9.60117 23.7503 9.60677C23.3976 9.60797 23.1526 9.84093 23.0985 10.194C23.0813 10.3052 23.0861 10.4177 23.0861 10.5298C23.0861 11.9355 23.0869 13.3408 23.0853 14.7466C23.0853 15.0179 23.0685 15.03 22.8119 15.0948C20.8659 15.5887 19.6441 16.8099 19.1597 18.7596C19.1113 18.9549 19.0264 19.0326 18.825 19.0286C18.3246 19.019 17.8238 19.025 17.323 19.0254C16.606 19.0262 16.3594 19.2756 16.359 20.0008C16.3586 20.472 16.3602 20.9431 16.3586 21.4138C16.3578 21.7048 16.3462 21.716 16.0556 21.7172C15.4803 21.7192 14.9038 21.6952 14.3298 21.7228C12.8129 21.7948 11.9434 23.1285 12.4574 24.6327C12.618 25.1026 12.9746 25.4336 13.413 25.661C13.5679 25.7414 13.6276 25.8419 13.6256 26.0124C13.6192 26.5732 13.6232 27.134 13.6232 27.6947C13.6232 27.874 13.62 28.0538 13.6236 28.2331C13.6268 28.3848 13.5595 28.4516 13.409 28.4488C13.2821 28.4464 13.1548 28.4452 13.0279 28.452C12.5779 28.4756 12.3265 28.7334 12.3257 29.1805C12.3237 30.1003 12.3237 31.0197 12.3257 31.9395C12.3265 32.3498 12.4474 32.5023 12.8405 32.6024H34.8161C35.1015 32.5587 35.2661 32.3942 35.3093 32.1088V29.0124C35.2144 28.6373 35.0051 28.4684 34.6131 28.4536C34.4938 28.4492 34.3741 28.4472 34.2552 28.4528C34.0939 28.4604 34.0287 28.3936 34.0295 28.2295C34.0331 27.4762 34.0323 26.7225 34.0299 25.9692C34.0295 25.8231 34.0931 25.7414 34.2192 25.673C34.8209 25.3456 35.2288 24.8733 35.3093 24.166V23.6725C35.2529 23.6028 35.2545 23.5232 35.2709 23.4415L35.2713 23.4403ZM30.9818 23.1329C31.736 23.1329 32.4906 23.1297 33.2448 23.1345C33.5851 23.1365 33.8345 23.3194 33.9238 23.6112C34.009 23.8906 33.9174 24.1684 33.6812 24.3433C33.5503 24.4402 33.4005 24.4786 33.2412 24.4786C31.7252 24.4794 30.2091 24.4774 28.6931 24.4822C28.5634 24.4822 28.5322 24.4434 28.535 24.3197C28.543 23.9763 28.5438 23.632 28.535 23.2886C28.5314 23.1589 28.5734 23.1293 28.6971 23.1301C29.4589 23.1357 30.2207 23.1329 30.9826 23.1329H30.9818ZM28.5334 26.0036C28.5318 25.8535 28.5758 25.8203 28.7187 25.8223C29.3388 25.8299 29.9593 25.8255 30.5794 25.8255C31.1995 25.8255 31.82 25.8307 32.4402 25.8215C32.5899 25.8195 32.6231 25.8635 32.6215 26.0068C32.6143 26.7845 32.6139 27.5622 32.6219 28.3396C32.6235 28.4897 32.5791 28.5217 32.4366 28.5209C31.1959 28.5153 29.9557 28.5149 28.7151 28.5213C28.5658 28.5221 28.5326 28.4792 28.5338 28.3359C28.541 27.5582 28.5414 26.7805 28.5334 26.0032V26.0036ZM24.4989 11.1066C24.4969 10.9989 24.5285 10.9685 24.6362 10.9693C25.4432 10.9737 26.2499 10.9737 27.057 10.9693C27.1638 10.9689 27.1967 10.9977 27.1947 11.1062C27.1883 11.4576 27.1867 11.809 27.1951 12.1601C27.1983 12.2869 27.1618 12.3234 27.0349 12.3206C26.639 12.3126 26.2431 12.3178 25.8472 12.3178C25.4512 12.3178 25.0549 12.3126 24.6594 12.3206C24.5333 12.323 24.4957 12.2881 24.4985 12.1605C24.5073 11.8094 24.5057 11.4576 24.4989 11.1066ZM17.7698 21.6111C17.7834 21.2825 17.7802 20.9531 17.771 20.6241C17.767 20.4852 17.7946 20.4291 17.9499 20.4359C18.2634 20.4495 18.5776 20.4399 18.8915 20.4399C19.1829 20.4399 19.4744 20.4419 19.7658 20.4395C20.1777 20.4359 20.4464 20.173 20.4656 19.7587C20.5328 18.2885 21.3539 17.1049 22.6377 16.6274C24.8191 15.8157 27.073 17.3331 27.1867 19.6934C27.1959 19.886 27.2251 20.0645 27.3572 20.2114C27.4997 20.3703 27.6779 20.4431 27.8932 20.4415C28.4909 20.4375 29.089 20.4451 29.6867 20.4367C29.836 20.4347 29.8945 20.4603 29.8873 20.6265C29.8725 20.9547 29.8769 21.2845 29.8861 21.6131C29.8897 21.7436 29.8661 21.7936 29.7191 21.7904C29.2187 21.7796 28.7175 21.7812 28.2171 21.7904C28.0926 21.7928 28.0045 21.7392 27.9125 21.6775C26.7275 20.8874 25.5425 20.0965 24.3575 19.3064C23.9136 19.0106 23.7434 19.0106 23.2987 19.3072C22.1137 20.0973 20.9283 20.8874 19.745 21.6796C19.6365 21.752 19.5296 21.792 19.3943 21.7896C18.9163 21.7812 18.4375 21.7816 17.9595 21.7896C17.8222 21.7916 17.7642 21.768 17.7706 21.6115L17.7698 21.6111ZM25.8452 23.825C25.844 23.2902 25.3171 22.9644 24.8592 23.211C24.6045 23.3479 24.4989 23.5692 24.4997 23.857C24.5029 25.338 24.4985 26.8185 24.5049 28.2995C24.5057 28.4648 24.478 28.5333 24.2919 28.5225C23.9864 28.5045 23.679 28.5081 23.3731 28.5213C23.2054 28.5285 23.1502 28.4905 23.151 28.3075C23.1594 26.8117 23.1554 25.316 23.1558 23.8202C23.1558 23.5392 23.0313 23.3306 22.7851 23.2038C22.5549 23.0853 22.3211 23.1021 22.1065 23.2466C21.8915 23.3915 21.8075 23.6016 21.8083 23.861C21.8123 25.3344 21.8059 26.8077 21.8155 28.2811C21.8167 28.478 21.7714 28.5337 21.5741 28.5221C21.2538 28.5033 20.9315 28.5117 20.6101 28.5197C20.4904 28.5229 20.462 28.4852 20.4624 28.3696C20.466 26.5672 20.4656 24.7648 20.4624 22.962C20.4624 22.8599 20.4944 22.8015 20.5789 22.7459C21.6233 22.0538 22.6666 21.3593 23.7062 20.6597C23.8071 20.5916 23.8716 20.6068 23.9624 20.6677C24.9969 21.3613 26.0325 22.0538 27.0718 22.7403C27.1775 22.8099 27.1939 22.8883 27.1935 22.9988C27.1907 23.889 27.1919 24.7788 27.1919 25.669C27.1919 26.5592 27.1879 27.449 27.1955 28.3392C27.1967 28.4897 27.1526 28.5249 27.0097 28.5205C26.681 28.5101 26.3516 28.5085 26.0233 28.5213C25.8708 28.5273 25.8428 28.4752 25.8432 28.3343C25.848 26.831 25.8484 25.3276 25.8448 23.8246L25.8452 23.825ZM14.4122 23.1345C15.174 23.1285 15.9359 23.1329 16.6977 23.1329C17.4447 23.1329 18.1913 23.1369 18.9383 23.1293C19.082 23.1281 19.1285 23.1617 19.1233 23.311C19.1113 23.6545 19.1157 23.9987 19.1217 24.3421C19.1237 24.4474 19.096 24.4814 18.9864 24.481C17.4555 24.4774 15.9243 24.4818 14.3934 24.4758C13.9963 24.4742 13.6964 24.1724 13.6956 23.807C13.6944 23.4331 14.0007 23.1373 14.413 23.1341L14.4122 23.1345ZM16.7749 31.1962C16.7293 31.2667 16.6629 31.2551 16.5968 31.2551C15.6789 31.2551 14.7613 31.2535 13.8434 31.2571C13.7353 31.2571 13.686 31.2411 13.6892 31.1142C13.6984 30.7411 13.6972 30.3677 13.6896 29.9942C13.6872 29.8794 13.7313 29.8618 13.8317 29.8622C15.078 29.8654 16.3242 29.8646 17.5704 29.8658C17.5824 29.8658 17.5948 29.8762 17.6236 29.8894C17.3394 30.3269 17.056 30.7612 16.7749 31.1962ZM17.056 28.5177C16.4431 28.5177 15.8306 28.5129 15.2177 28.5213C15.0712 28.5233 15.0327 28.484 15.0343 28.3375C15.0419 27.5598 15.0419 26.7821 15.0343 26.0048C15.0327 25.8579 15.072 25.8211 15.2181 25.8215C16.4587 25.8275 17.6989 25.8275 18.9395 25.8215C19.0856 25.8207 19.1241 25.8583 19.1229 26.0048C19.1153 26.7825 19.1153 27.5602 19.1229 28.3375C19.1245 28.4844 19.0852 28.5229 18.9391 28.5209C18.3114 28.5125 17.6837 28.5173 17.056 28.5173V28.5177ZM18.3695 31.2339C18.6573 30.7916 18.9411 30.3569 19.2229 29.921C19.2694 29.8493 19.337 29.8642 19.4023 29.8642C22.3539 29.8642 25.3055 29.8642 28.2567 29.8618C28.3592 29.8618 28.4161 29.8942 28.4705 29.9794C28.7355 30.3941 29.0081 30.8036 29.2784 31.2159C29.121 31.2647 18.7654 31.2827 18.3695 31.2335V31.2339ZM33.9678 30.0423C33.9562 30.4001 33.9606 30.7591 33.9662 31.1174C33.9678 31.2211 33.9438 31.2583 33.8321 31.2575C32.8993 31.2531 31.9666 31.2539 31.0338 31.2571C30.9473 31.2571 30.9021 31.2247 30.8573 31.1546C30.5874 30.7355 30.312 30.3197 30.013 29.8638H30.8725C31.8425 29.8638 32.8125 29.867 33.7829 29.8606C33.9262 29.8598 33.9726 29.893 33.9674 30.0423H33.9678Z" fill="white"/>
<path d="M35.2885 23.4385C35.2917 23.5162 35.2668 23.5966 35.3097 23.6711V23.4465C35.3029 23.4417 35.2957 23.4389 35.2885 23.4381V23.4385Z" fill="white"/>
</g>
<defs>
<radialGradient id="paint0_radial_3607_241" cx="0" cy="0" r="1" gradientUnits="userSpaceOnUse" gradientTransform="translate(12.1935 52.0908) rotate(-61.0278) scale(67.3514 6875.21)">
<stop offset="0.0001" stop-color="#F50A46"/>
<stop offset="1" stop-color="#F50A46" stop-opacity="0.83"/>
</radialGradient>
<clipPath id="clip0_3607_241">
<rect width="23" height="23" fill="white" transform="translate(12.3096 9.60132)"/>
</clipPath>
</defs>
</svg>
