<?xml version="1.0" encoding="utf-8"?>
<!-- Generator: Adobe Illustrator 28.0.0, SVG Export Plug-In . SVG Version: 6.00 Build 0)  -->
<svg version="1.1" id="Layer_1" xmlns="http://www.w3.org/2000/svg" xmlns:xlink="http://www.w3.org/1999/xlink" x="0px" y="0px"
     viewBox="0 0 1524.47 1532.46" style="enable-background:new 0 0 1524.47 1532.46;" xml:space="preserve">
<style type="text/css">
	.st0{fill:#DCDBDB;}
	.st1{fill-rule:evenodd;clip-rule:evenodd;fill:#DCDBDB;}
</style>
    <g>
	<g>
		<g>
			<path class="st0" d="M617.45,1440.14l-24.29-7.46l0.5-1.63l5.66,1.74l17.45-56.82l-5.66-1.74l0.5-1.63l26.52,8.15
				c21.2,6.51,30.61,17.76,24.05,39.14C654.75,1444.08,637.96,1446.44,617.45,1440.14z M619.32,1438.93
				c11.59,3.56,18.43-2.51,24.34-21.74l1.53-4.98c6.41-20.86,2.4-26.78-9.61-30.47l-2.06-0.63l-17.45,56.82L619.32,1438.93z"/>
            <path class="st0" d="M731.49,1401.11c19.1,2.81,27.05,15.96,24.08,36.12c-2.92,19.81-14.06,30.78-34.58,27.76
				c-19.81-2.92-27.62-15.77-24.75-35.31C699.26,1409.25,711.68,1398.19,731.49,1401.11z M737.68,1431.78
				c2.68-18.21,3.48-27.35-7.18-28.92c-10.75-1.58-12.84,7.73-15.52,25.94l-0.94,6.39c-2.46,16.7-2.8,26.45,7.59,27.98
				c9.95,1.46,12.46-6.97,15.09-24.82L737.68,1431.78z"/>
            <path class="st0" d="M852.56,1434.86l0.52,7.08c1.22,16.48,6.75,26.79,16.51,26.07c7.26-0.54,12.52-8.49,16.68-20.5l1.61-0.12
				l0.85,20.02l-0.99,0.07c-0.71-1.12-1.12-1.72-2.55-1.61c-3.04,0.22-7.77,3.37-17.62,4.09c-18.99,1.4-31.37-7.77-32.95-29.18
				c-1.6-21.67,10.1-34.06,28.46-35.42c9.31-0.69,13.82,1.77,16.95,1.54c1.43-0.11,1.75-0.76,2.29-1.97l0.99-0.07l2.15,19.38
				l-1.61,0.12c-5.74-10.65-11.67-17.87-19.38-17.3C855.42,1407.73,851.19,1416.32,852.56,1434.86z"/>
            <path class="st0" d="M944.35,1393.1c18.85-4.18,30.96,5.27,35.38,25.17c4.33,19.55-2.17,33.77-22.42,38.26
				c-19.55,4.33-31.43-4.89-35.71-24.18C917.14,1412.19,924.81,1397.44,944.35,1393.1z M961.07,1419.56
				c-3.98-17.97-6.49-26.79-17.01-24.46c-10.61,2.35-9.25,11.8-5.26,29.77l1.4,6.31c3.65,16.48,6.81,25.71,17.06,23.44
				c9.82-2.18,9.16-10.95,5.25-28.57L961.07,1419.56z"/>
            <path class="st0" d="M1066.89,1353.55l0.63,1.59l-4.59,1.82l21.87,55.28l4.59-1.82l0.63,1.59l-25.47,10.07l-0.63-1.59l4.59-1.82
				l-20.65-52.19l-0.33,0.13l8.75,58.73l-10.44,4.13l-36.07-48.21l-0.33,0.13l20.74,52.44l4.59-1.82l0.63,1.59l-11.36,4.49
				l-0.63-1.59l4.59-1.82l-21.87-55.28l-4.59,1.82l-0.63-1.59l22.55-8.92l28.12,38.61l-6.99-46.97L1066.89,1353.55z"/>
            <path class="st0" d="M1113.74,1327.92c14.6-8.49,25.11-10.23,32.2,1.96c7.67,13.2-0.51,22.53-15.58,31.28l-0.62,0.36l12.1,20.81
				l9.7-5.64l0.86,1.48l-29.89,17.38l-0.86-1.48l5.05-2.93l-29.88-51.4l-5.05,2.93l-0.86-1.47L1113.74,1327.92z M1128.88,1360.05
				l1.63-0.95c6.52-3.79,5.61-9.29,0.38-18.29l-2.17-3.73c-5.1-8.77-8.77-10.79-14.67-7.37l-2.1,1.22L1128.88,1360.05z"/>
            <path class="st0" d="M1185.68,1278.91l1.21,1.56l-7.52,5.83l36.08,46.56l2.56-1.98c8.8-6.82,7.75-16.23,5.23-28.14l1.49-1.16
				l11.52,17.66l-37.62,29.15l-1.21-1.56l4.19-3.25l-36.08-46.56l-4.19,3.25l-1.21-1.56L1185.68,1278.91z"/>
            <path class="st0" d="M1252.93,1216.84l13.28,11.85l-1.14,1.15c-11.84-4.75-17.68-4.59-25.31,3.14l-2.21,2.24l19.74,19.5
				l2.14-2.17c4.1-4.15,3.24-10.31-0.54-16.18l0.94-0.96l18.91,18.68l-1.07,1.08c-7.9-4.78-12.79-4.81-17.21-0.34l-1.51,1.53
				l20.5,20.25l2.4-2.43c8.01-8.11,8.01-19.22,2.94-28.02l1.26-1.28l13.42,14.27l-34.64,35.07l-1.41-1.39l3.72-3.77l-41.9-41.39
				l-3.72,3.77l-1.41-1.39L1252.93,1216.84z"/>
            <path class="st0" d="M1342.2,1206.93l-1.37-1.02l3.54-4.75l-27-3.44l10.47,25.61l5.69-7.63l1.37,1.02l-11.11,14.9l-1.37-1.02
				l3.59-4.82l-11.77-28.38l-37.63-4.65l-2.9,3.89l-1.44-1.07l18.08-24.26l1.44,1.07l-3.65,4.89l24.66,3.27l-9.32-23.86l-5.58,7.49
				l-1.44-1.07l11-14.76l1.44,1.07l-3.54,4.75l10.36,26.66l40.33,4.64l3.11-4.17l1.37,1.02L1342.2,1206.93z"/>
            <path class="st0" d="M1336.02,1098.36c9.24-16.95,24.33-19.88,42.23-10.12c17.58,9.58,24.03,23.83,14.11,42.05
				c-9.58,17.58-24.35,20.48-41.7,11.02C1332.53,1131.42,1326.44,1115.94,1336.02,1098.36z M1366.96,1103.15
				c-16.17-8.81-24.46-12.72-29.62-3.26c-5.2,9.54,2.81,14.73,18.98,23.54l5.68,3.09c14.82,8.08,23.85,11.77,28.88,2.55
				c4.81-8.83-2.23-14.1-18.08-22.74L1366.96,1103.15z"/>
		</g>
	</g>
        <g>
		<g>
			<path class="st0" d="M170.12,696.07c-6.71-0.34-9.15,4.56-12.49,14.36c-3.25,9.65-7.51,16.89-19.72,16.26
				c-9.06-0.46-17.21-7.61-16.57-20.06c0.38-7.44,3.1-11.52,3.24-14.27c0.07-1.37-0.48-1.81-1.5-2.43l0.05-0.89l16.36,0.27
				l-0.07,1.29c-7.65,3.74-16.02,8.83-16.44,17.16c-0.3,5.82,2.89,10.04,7.66,10.28c5.98,0.3,8.29-5.09,10.89-13.15
				c2.88-8.85,6.47-18.64,19.89-17.96c11.65,0.59,18.92,8.91,18.32,20.8c-0.4,7.84-3.17,14.51-3.29,16.78
				c-0.07,1.29,0.8,1.83,2.3,2.55l-0.06,1.13l-19.29-0.17l0.07-1.37c8.29-3.63,18.16-10.99,18.61-19.89
				C178.34,701.92,176.02,696.37,170.12,696.07z"/>
            <path class="st0" d="M133.89,609.38l15.94,1.86l-0.24,1.44c-11.2,2.63-15.42,5.78-17.05,15.44l-0.47,2.8l24.67,4.15l0.46-2.71
				c0.87-5.19-2.95-9.28-8.79-11.66l0.2-1.2l23.64,3.98l-0.23,1.36c-8.31,0.57-11.93,3.08-12.87,8.67l-0.32,1.92l25.63,4.31
				l0.51-3.03c1.71-10.14-4.06-18.34-12.36-22.19l0.27-1.6l17.3,3.57l-7.37,43.84l-1.76-0.3l0.79-4.71l-52.38-8.81l-0.79,4.71
				l-1.76-0.3L133.89,609.38z"/>
            <path class="st0" d="M170.49,564l6.14,1.8c14.29,4.19,24.75,2.79,27.23-5.68c1.85-6.29-3.2-13.25-12.02-20.57l0.41-1.4
				l17.16,5.62l-0.25,0.86c-1.17,0.25-1.81,0.4-2.17,1.64c-0.78,2.64,0.38,7.62-2.13,16.17c-4.83,16.47-16.49,24.02-35.06,18.57
				c-18.8-5.51-25.55-19.31-20.88-35.23c2.37-8.08,5.87-11.1,6.67-13.82c0.36-1.24-0.09-1.71-0.94-2.55l0.25-0.86l17.04,4.32
				l-0.41,1.4c-10.81,1.47-18.78,4.2-20.74,10.88C148.5,553,154.41,559.29,170.49,564z"/>
            <path class="st0" d="M201.41,485.26l24.84,10.9l2.11-4.82l1.41,0.62l-10.57,24.1l-1.41-0.62l2.11-4.82l-49.09-21.54l-2.11,4.82
				l-1.41-0.62l9.82-22.39c6.8-15.5,11.68-22.2,22.51-17.45c9.05,3.97,9.63,9.89,6.85,18.04l0.22,0.1
				c4.55-7.55,8.87-8.93,17.47-5.16l3.93,1.72c4.82,2.11,6.62,2.64,7.53,0.56c0.59-1.33,0.48-2.71-4.88-6.21l0.7-1.2
				c7.96,4.82,9.21,7.84,6.18,14.74c-4.1,9.34-8.42,10.72-18.87,6.13l-5.41-2.37c-5.27-2.31-8.46-2.48-10.22,1.53L201.41,485.26z
				 M200,484.64l1.04-2.37c2.41-5.49,0.6-9.64-7.41-13.15l-2.15-0.94c-8.3-3.64-10.97-1.19-13.25,4l-1.07,2.45L200,484.64z"/>
            <path class="st0" d="M226.34,377.38l14.18,7.52l-0.75,1.25c-11.39-1.61-16.47-0.21-21.49,8.2l-1.45,2.43l21.48,12.82l1.41-2.36
				c2.7-4.52,0.61-9.72-3.96-14.06l0.62-1.04l20.58,12.28l-0.7,1.18c-7.95-2.48-12.24-1.46-15.14,3.41l-1,1.67L262.45,424l1.58-2.64
				c5.27-8.83,2.87-18.56-3.46-25.17l0.83-1.39l14.83,9.6l-22.77,38.17l-1.53-0.91l2.45-4.1l-45.61-27.21l-2.45,4.1l-1.53-0.91
				L226.34,377.38z"/>
            <path class="st0" d="M292.83,320.19l-0.94,1.22c-13.12-4.59-18.95-5.91-23.45-0.07l-0.59,0.77l42.21,32.5l4.2-5.45l1.35,1.04
				l-18.03,23.41l-1.35-1.04l4.2-5.45l-42.21-32.5l-0.64,0.83c-4.5,5.84-1.36,11.72,6.06,22.65l-0.94,1.22l-15.61-13.04l29.14-37.85
				L292.83,320.19z"/>
            <path class="st0" d="M339.29,295.04l-11.14,11.53l8.25,16.64l4.22-4.37l1.11,1.07l-8.61,8.91l-1.11-1.07l2.64-2.74l-25.67-53.5
				l4.61-4.78l54.19,23.97l2.59-2.68l1.11,1.07l-18.4,19.05l-1.11-1.07l3.99-4.14L339.29,295.04z M327.38,304.81l10.18-10.54
				l-20.15-9.67L327.38,304.81z"/>
            <path class="st0" d="M387.87,237.21l16.98,21.14l4.1-3.29l0.96,1.2l-20.51,16.47l-0.96-1.2l4.1-3.29l-33.56-41.79l-4.1,3.29
				l-0.96-1.2l19.06-15.31c13.19-10.6,20.62-14.28,28.02-5.06c6.18,7.7,3.97,13.22-2.27,19.16l0.15,0.19
				c7.53-4.59,11.99-3.82,17.87,3.51l2.69,3.35c3.29,4.1,4.65,5.4,6.42,3.98c1.14-0.91,1.68-2.18-1.46-7.76l1.18-0.74
				c4.83,7.96,4.53,11.21-1.34,15.92c-7.95,6.39-12.42,5.61-19.56-3.29l-3.7-4.61c-3.6-4.48-6.36-6.11-9.77-3.37L387.87,237.21z
				 M386.91,236.01l2.02-1.62c4.67-3.75,4.99-8.27-0.48-15.08l-1.47-1.83c-5.68-7.07-9.18-6.13-13.6-2.58l-2.08,1.67L386.91,236.01z
				"/>
            <path class="st0" d="M444.54,162.36l0.83,1.3l-3.75,2.4l28.94,45.12l3.75-2.4l0.83,1.3l-20.79,13.33l-0.83-1.3l3.75-2.41
				l-28.94-45.12l-3.75,2.4l-0.83-1.3L444.54,162.36z"/>
            <path class="st0" d="M513.81,167.04l-14.33,7.18l2.26,18.43l5.43-2.72l0.69,1.38l-11.08,5.55l-0.69-1.38l3.4-1.7l-6.44-58.98
				l5.94-2.97l43.14,40.6l3.33-1.67l0.69,1.38l-23.67,11.85l-0.69-1.38l5.14-2.57L513.81,167.04z M499.33,172.3l13.1-6.56
				l-15.79-15.81L499.33,172.3z"/>
            <path class="st0" d="M626.71,143.31l-22.08,6.15l-0.41-1.48l5.15-1.43L594.99,94.9l-5.15,1.43l-0.41-1.48l24.1-6.71
				c19.27-5.36,31.89-1.4,37.3,18.03C656.95,128.17,645.35,138.12,626.71,143.31z M627.54,141.48c10.53-2.93,12.78-10.87,7.91-28.34
				l-1.26-4.52c-5.28-18.96-11.2-21.51-22.12-18.47l-1.87,0.52l14.38,51.64L627.54,141.48z"/>
            <path class="st0" d="M719.19,66.76l3.13,15.74l-1.44,0.21c-5.94-9.85-10.23-12.9-19.92-11.48l-2.8,0.41l3.63,24.75l2.72-0.4
				c5.21-0.76,7.92-5.66,8.39-11.95l1.2-0.18l3.47,23.71l-1.36,0.2c-3.1-7.73-6.6-10.4-12.2-9.58l-1.92,0.28l3.77,25.71l3.04-0.45
				c10.17-1.49,16.2-9.49,17.32-18.57l1.6-0.23l1.92,17.55l-43.97,6.44l-0.26-1.76l4.72-0.69l-7.7-52.54l-4.73,0.69l-0.26-1.76
				L719.19,66.76z"/>
            <path class="st0" d="M831.55,110.2c0.21-6.72-4.74-9.06-14.61-12.2c-9.71-3.05-17.03-7.17-16.66-19.39
				c0.28-9.06,7.26-17.36,19.72-16.97c7.45,0.23,11.58,2.87,14.33,2.95c1.38,0.04,1.8-0.51,2.4-1.55l0.89,0.03l0.06,16.36l-1.3-0.04
				c-3.9-7.57-9.15-15.84-17.49-16.1c-5.83-0.18-9.98,3.09-10.13,7.87c-0.19,5.99,5.26,8.18,13.36,10.62
				c8.91,2.71,18.77,6.09,18.35,19.52c-0.36,11.66-8.53,19.1-20.43,18.73c-7.85-0.24-14.57-2.88-16.84-2.95
				c-1.29-0.04-1.81,0.83-2.5,2.35l-1.13-0.03l-0.21-19.29l1.38,0.04c3.8,8.22,11.35,17.93,20.25,18.21
				C825.87,118.53,831.37,116.11,831.55,110.2z"/>
            <path class="st0" d="M917.47,72.23l-1.54,15.98L914.49,88c-2.86-11.14-6.09-15.3-15.78-16.73l-2.8-0.41l-3.65,24.75l2.72,0.4
				c5.21,0.77,9.22-3.14,11.48-9.03l1.2,0.18l-3.5,23.71l-1.36-0.2c-0.74-8.29-3.32-11.87-8.93-12.69l-1.92-0.28l-3.79,25.71
				l3.04,0.45c10.17,1.5,18.25-4.43,21.94-12.8l1.6,0.24l-3.22,17.37l-43.98-6.49l0.26-1.76l4.73,0.7l7.75-52.55l-4.73-0.7
				l0.26-1.76L917.47,72.23z"/>
            <path class="st0" d="M974.39,136.28l4.14-15.15l-5-1.37l0.47-1.72l22.49,6.15l-0.47,1.72l-3.05-0.83l-6.02,22.02l-1.17-0.32
				c-0.57-1.58-1.26-2.44-3.45-3.04c-3.12-0.85-9.75,0.35-16.54-1.5c-16.55-4.53-24.31-16.05-19.21-34.71
				c5.17-18.9,18.83-25.9,34.84-21.52c8.12,2.22,11.67,5.79,14.41,6.54c1.25,0.34,1.71-0.12,2.53-0.98l0.86,0.24l-4.01,17.11
				l-1.41-0.39c-1.98-9.94-5-18.82-11.88-20.7c-7.73-2.11-13.91,3.92-18.33,20.08l-1.69,6.17c-4.34,15.85-2.33,24.79,4.85,26.76
				C972.23,142.32,973.3,140.26,974.39,136.28z"/>
            <path class="st0" d="M1063.33,156.64l14-33.81l-4.86-2.01l0.59-1.42l10.92,4.52l-0.59,1.42l-4.11-1.7l-13.78,33.28
				c-4.77,11.52-11.43,16.82-26.77,10.47c-12.19-5.05-19.15-13.01-12.98-27.89l13.44-32.46l-4.11-1.7l0.59-1.42l23.56,9.76
				l-0.59,1.42l-4.86-2.01l-14.5,35c-3.41,8.23-3.94,15.02,5.26,18.83C1052.09,170.03,1058.9,167.33,1063.33,156.64z"/>
            <path class="st0" d="M1117.37,172.86l-13.5,23.53l4.57,2.62l-0.77,1.33l-22.83-13.09l0.77-1.33l4.56,2.62l26.67-46.49l-4.57-2.62
				l0.77-1.34l21.21,12.17c14.68,8.42,20.82,13.99,14.93,24.25c-4.91,8.57-10.86,8.52-18.67,4.88l-0.12,0.21
				c7.02,5.33,7.93,9.78,3.26,17.92l-2.14,3.72c-2.62,4.56-3.33,6.3-1.37,7.43c1.27,0.73,2.64,0.77,6.7-4.19l1.11,0.83
				c-5.65,7.4-8.78,8.31-15.31,4.56c-8.85-5.08-9.76-9.52-4.08-19.42l2.94-5.13c2.86-4.99,3.37-8.15-0.43-10.32L1117.37,172.86z
				 M1118.14,171.53l2.25,1.29c5.2,2.98,9.52,1.63,13.87-5.95l1.17-2.04c4.51-7.87,2.36-10.78-2.56-13.6l-2.32-1.33L1118.14,171.53z
				"/>
            <path class="st0" d="M1186.85,229.94l-12.78-9.68l-15.53,10.17l4.84,3.67l-0.93,1.23l-9.87-7.48l0.93-1.23l3.03,2.3l50.05-31.86
				l5.29,4.01l-17.33,56.65l2.97,2.25l-0.93,1.23l-21.1-15.99l0.93-1.23l4.58,3.47L1186.85,229.94z M1175.73,219.28l11.68,8.85
				l7.2-21.16L1175.73,219.28z"/>
            <path class="st0" d="M1248.29,309.64l-8.12-7.91l16.68-56.89l-35.49,36.41l3.19,3.11l-1.07,1.1l-7.94-7.74l1.07-1.1l3.19,3.11
				l37.41-38.38l-3.19-3.11l1.07-1.1l16,15.6l-13.18,43.91l27.3-28l-3.19-3.11l1.07-1.1l7.94,7.74l-1.07,1.1l-3.19-3.11
				L1248.29,309.64z"/>
            <path class="st0" d="M1304.77,325.87l-4.99,4c-11.62,9.32-16.45,18.7-10.93,25.58c4.1,5.12,12.7,4.96,23.75,1.91l0.91,1.14
				l-14.44,10.86l-0.56-0.69c0.47-1.1,0.71-1.71-0.11-2.72c-1.62-2.02-5.86-3.81-10.86-9.66l-4.63,0.7
				c0.42,0.39,1.25,1.18,1.86,1.93c3.75,4.67,3.05,8.45-0.3,11.14c-2.84,2.28-8.24,3.19-13.46-3.32c-3.14-3.91-3.45-7.92-1.05-9.85
				c1.77-1.42,3.75-1.14,5.02,0.44c1.27,1.58,0.83,3.49-0.07,4.83l-2.58-0.63c-1.01,0.81-1.93,2.38-0.61,4.02
				c1.27,1.58,3.09,1.26,6.68-1.63c3.28-2.63,5.13-4.22,3.56-6.18c-0.45-0.57-0.97-1.09-1.77-1.69l0.41-0.65l5.5-0.78
				c-10.46-13.3-9.94-27.01,5.09-39.07c15.28-12.26,30.46-9.91,40.84,3.04c5.27,6.57,5.74,11.17,7.52,13.38
				c0.81,1.01,1.46,0.91,2.63,0.69l0.56,0.69l-13.3,11.5l-0.91-1.14c4.98-9.7,7.31-17.8,2.95-23.23
				C1326.39,314.13,1317.84,315.39,1304.77,325.87z"/>
            <path class="st0" d="M1346.14,405.77l-8.41-13.65l-18.16,3.86l3.18,5.17l-1.31,0.81l-6.5-10.55l1.31-0.81l2,3.24l58.18-11.59
				l3.48,5.65l-36.66,46.54l1.95,3.17l-1.31,0.81l-13.88-22.54l1.31-0.81l3.01,4.89L1346.14,405.77z M1339.63,391.81l7.69,12.48
				l14.37-17.12L1339.63,391.81z"/>
            <path class="st0" d="M1432.75,496.33c5.46,14.21,5.51,23.81-6.35,28.37c-12.85,4.94-19.98-3.68-25.61-18.34l-0.23-0.6
				l-20.25,7.78l3.63,9.45l-1.44,0.55l-11.18-29.09l1.44-0.55l1.89,4.91l50.02-19.23l-1.89-4.91l1.44-0.55L1432.75,496.33z
				 M1401.99,505.21l0.61,1.59c2.44,6.35,7.46,6.33,16.23,2.96l3.63-1.39c8.54-3.28,10.86-6.26,8.66-12l-0.78-2.04L1401.99,505.21z"
            />
            <path class="st0" d="M1406.25,595.3c1.98,7.93,8.2,11.81,19.44,9l35.51-8.86l-1.28-5.11l1.49-0.37l2.86,11.47l-1.49,0.37
				l-1.08-4.32l-34.96,8.72c-12.1,3.02-20.32,0.81-24.34-15.29c-3.2-12.8-0.93-23.13,14.7-27.03l34.09-8.51l-1.08-4.32l1.49-0.37
				l6.17,24.75l-1.49,0.37l-1.27-5.11l-36.76,9.17C1409.62,582.02,1403.84,585.63,1406.25,595.3z M1460.11,570.34l-0.63,0.82
				l8.22,11.22c1.39,1.91,3.46,2.81,5.42,2.32c1.57-0.39,3.06-1.77,2.59-4.65l-0.63-3.85L1460.11,570.34z"/>
            <path class="st0" d="M1473.01,657.53c1.72,14.14-0.5,22.73-10.46,23.94c-7.71,0.94-12.4-3.39-14.79-11.66l-0.16,0.02
				c-0.06,10.28-3.59,16.75-12.03,17.77c-12.45,1.51-17.02-8.53-18.86-23.64l-2.87-23.62l1.53-0.19l0.63,5.22l53.2-6.47l-0.63-5.22
				l1.53-0.19L1473.01,657.53z M1417.91,661.05l0.46,3.78c0.75,6.19,5.63,7.39,13.02,6.49l4.26-0.52c6.59-0.8,10.35-3.38,9.41-11.17
				l-0.22-1.85L1417.91,661.05z M1446.35,657.59l0.25,2.09c0.7,5.79,4.6,7.02,11.19,6.22l3.78-0.46c7.71-0.94,10.52-2.67,9.84-8.29
				l-0.31-2.57L1446.35,657.59z"/>
            <path class="st0" d="M1478.09,744.96l-1.78,0.01l-0.03-8.58l-53.1,0.17l0.01,2.91c0.03,10.04,7.33,14.47,17.22,19.21l0.01,1.7
				l-18.95-1.48l-0.13-42.9l1.78-0.01l0.02,4.78l53.1-0.17l-0.02-4.78l1.78-0.01L1478.09,744.96z"/>
            <path class="st0" d="M1473.84,817.4l-1.53-0.15l0.42-4.43l-53.35-5.07l-0.42,4.43l-1.53-0.15l2.33-24.58l1.53,0.15l-0.42,4.43
				l53.35,5.07l0.42-4.43l1.53,0.15L1473.84,817.4z"/>
            <path class="st0" d="M1441.78,862.49l-6.27-1.27c-14.6-2.94-24.9-0.64-26.64,8.01c-1.3,6.43,4.33,12.93,13.75,19.46l-0.29,1.43
				l-17.59-4.13l0.18-0.87c1.14-0.35,1.76-0.55,2.02-1.82c0.55-2.7-1.04-7.56,0.73-16.29c3.39-16.83,14.37-25.35,33.33-21.52
				c19.21,3.88,27.13,17.04,23.84,33.31c-1.67,8.25-4.89,11.57-5.46,14.35c-0.26,1.27,0.24,1.7,1.16,2.46l-0.18,0.87l-17.35-2.84
				l0.29-1.43c10.64-2.4,18.35-5.8,19.73-12.62C1464.65,871.56,1458.21,865.8,1441.78,862.49z"/>
            <path class="st0" d="M1406.94,945.43l5.09-15.2l-14.6-11.46l-1.93,5.76l-1.46-0.49l3.93-11.74l1.46,0.49l-1.21,3.61l46.19,37.22
				l-2.11,6.29l-59.21,1.7l-1.18,3.53l-1.46-0.49l8.4-25.1l1.46,0.49l-1.82,5.45L1406.94,945.43z M1413.49,931.48l-4.65,13.89
				l22.35,0.05L1413.49,931.48z"/>
		</g>
	</g>
        <path class="st0" d="M1333.25,866.08c-6.36-5.41-14.72-3.47-21.48,0.36c-6.52,3.7-12.62,8.39-18.19,13.44
		c-13.14,11.92-24.04,25.88-35.31,39.53c-9.52,11.54-17.92,24.29-30.27,33.23c4.97-13.63,11.27-26.3,16.46-39.42
		c4.93-12.47,9.13-24.37,25.92-24.81c5.89-0.15,10.64-5.49,14.83-9.95c46.5-49.45,55.99-111.34,58.52-175.41
		c0.39-9.91-6.77-9.96-13.79-7.08c-6.87,2.82-11,8.59-14.37,15.01c-7.77,14.82-13.68,30.35-18.96,46.21
		c-5.06,15.19-11,30.09-16.56,45.12c-0.08-18.36,1.88-35.88,3.63-53.42c0.42-4.22,1.13-7.74,5.41-9.98
		c12.8-6.7,17.41-19.07,21.25-31.82c9.95-33.02,10.98-66.72,5.95-100.52c-3.19-21.43-5.94-43.06-13.01-63.73
		c-1.46-4.26-3.16-8.98-8.94-8.9c-5.35,0.07-7.84,4.01-9.7,8.34c-4.26,9.93-5.55,20.39-5.54,31.1c0.02,24.39,0.01,48.79,0.01,73.18
		c-3.25-24.94-17.67-48.3-4.07-75.42c7.21-14.37-0.06-32.8-3.43-49.14c-9.08-44.05-31.48-81.71-56.93-117.85
		c-2.19-3.12-4.92-7.55-9.62-5.46c-4.24,1.89-3.96,6.37-3.43,10.64c1.25,10.09,3.74,19.8,7.52,29.24
		c7.25,18.1,14.35,36.27,21.51,54.4c-9.06-14.47-23.74-26.26-25.05-43.8c-0.85-11.37-2.61-22-7.33-32.12
		c-22.92-49.19-60.62-85.18-104.15-115.86c-3.19-2.25-6.92-5.31-11.05-2.86c-4.84,2.87,1.44,7.88-1.13,12.05
		c-18.78-13.68-35.03-30.08-56.26-39.1c-20.92-8.89-42.74-15.97-62.85-26.37c-17.54-9.07-36.17-0.37-53.88-7.6
		c-1.1-0.45-2.2-0.86-3.3-1.27c-0.49,5.5-1.58,11.08-3.12,16.6c7.11,2.63,14.1,5.51,20.92,8.69c47.21,21.99,94.6,45.12,138.34,74.49
		c-2.32,2.49-8.58-1.3-9.2,4.44c-0.52,4.78,3.8,6.82,6.82,9.28c34.54,28.06,66.64,58.74,99.25,91.65
		c-6.09,0.89-12.62-3.09-15.52,2.99c-2.86,6,1.27,10.87,4.54,15.13c25.88,33.77,47.13,70.48,68.52,107.38
		c-0.77,2.91-2.9,1.29-4.58,0.92c-15.66-3.51-20.68,1.04-15.2,15.99c12.02,32.75,21.91,66.14,31.96,99.5
		c6.29,20.87,12.46,41.87,31.8,55.32c3.18,2.21,3.82,5.75,3.79,9.45c-0.16,18.47-3.07,36.54-8.04,54.48
		c-3.44-15.32-2.07-30.99-5.63-46.15c-4.53-19.31-8.93-38.6-24.85-52.35c-4.63-4-10.27-7.37-16.62-4.19
		c-5.31,2.65-5.74,8.44-5.02,13.36c6.12,41.57,2.82,83.76,8.39,125.32c1.96,14.61,5.75,28.83,16.76,39.79
		c3.55,3.53,4.95,7.44,3.08,12.34c-6.98,18.24-14.57,36.18-26.58,56.35c2.62-19.17,4.61-34.46,6.83-49.7
		c2.22-15.23,1.09-30.3-2.4-45.14c-2.35-9.98-6.58-19.31-16.14-24.66c-9.05-5.06-16.71-4.8-19.49,7.17
		c-10.16,43.76-20.82,87.48-24.49,132.37c-0.84,10.22,0.08,21.87,6.2,30.78c6.85,9.98,4.96,16.94-2.96,24.84
		c-12.11,12.08-23.51,24.88-37.23,36.09c5.99-13.82,12.14-27.57,17.93-41.47c5.09-12.21,7.9-25.1,9.19-38.18
		c1.49-15.03-0.72-29.47-11.8-40.86c-7.19-7.38-15.94-9.25-21.05,1.4c-20.28,42.19-47.59,81.28-57.35,128.17
		c-1.98,9.51-2.98,19.37,0.55,28.45c3.92,10.09,1,15.85-7.93,20.95c-17.08,9.76-33.51,20.68-53.29,27.19
		c7.27-8.23,14.69-16.34,21.77-24.72c14.5-17.16,26.51-35.78,31.55-58.04c3.46-15.28,3.03-30.09-7.1-43.33
		c-5.2-6.79-10.49-9.35-17.33-2.21c-30.05,31.39-60.67,62.37-82.98,100.1c-8.32,14.07-13.08,29.63-12.28,46.25
		c0.28,5.78-0.49,10.05-6.66,11.65c-21.95,5.67-43.89,11.39-67.63,11c3.96-2.37,7.86-4.84,11.88-7.08
		c23.29-12.98,43.5-29.5,58.43-51.83c12.11-18.11,17.24-37.52,9.4-58.94c-3.04-8.32-8.2-11.55-16.22-6.4
		c-34.82,22.37-71.09,42.74-100.91,72.1c-11.26,11.08-19.65,24.22-27.09,40.92c-9.04-13.69-15.13-26.73-25.01-37.27
		c-22.08-23.54-49.65-39.67-75.75-57.81c-8.29-5.76-17.24-10.56-25.63-16.18c-11.43-7.66-17.08-3.38-20.64,8.54
		c-5.48,18.39-0.97,35,8.11,50.81c13.22,23.02,33.35,38.96,55.45,52.73c5.41,3.37,10.94,6.55,15.93,11.02
		c-22.98-0.46-44.76-6.04-66.39-12.28c-5.11-1.47-6.41-5.93-6.25-10.91c0.9-27.52-11.83-50.02-28.12-70.28
		c-19.93-24.79-41.28-48.45-62.56-72.11c-11.25-12.51-18.26-11-26.01,4.34c-7.61,15.05-5.84,30.4-0.74,45.66
		c8.21,24.53,23.38,44.59,41.1,62.91c3.72,3.84,8.11,7.03,12.19,10.51c-22.7-5.97-41.51-17.47-60.02-29.5
		c-4.13-2.68-6.74-5.91-5.04-11.33c7.98-25.41,0.64-49.18-9.62-71.84c-13.33-29.43-28.07-58.25-42.89-86.97
		c-7.78-15.1-17.41-15.3-27.41-1.37c-10.64,14.81-9.2,31.55-6.52,48.19c2.01,12.5,5.8,24.61,10.99,36.17
		c5.17,11.5,10.85,22.77,18.26,38.19c-19.86-16.68-34.11-32.95-47.6-49.97c-2.48-3.13-2.67-6.37-0.45-9.78
		c14.93-22.86,10.82-47.67,6.35-72.03c-5.83-31.77-12.71-63.36-19.89-94.86c-3.62-15.88-13.82-18.29-25.59-6.62
		c-9.95,9.87-12.39,22.84-13.21,36.16c-1.47,23.82,1.49,47.32,4.53,71.28c-9.89-16.28-18.82-32.94-24.68-51.15
		c-0.79-2.47-1.25-5.27,0.81-7.16c21.38-19.55,20.56-46.41,22.41-71.71c2.28-31.18,1.46-62.57,4.67-93.76
		c0.59-5.74,1.91-13.11-5.3-15.95c-7.08-2.79-12.34,2.09-17.41,6.51c-12.98,11.33-17.72,26.88-21.22,42.7
		c-4.48,20.24-6.93,40.82-6.3,64.91c-6.65-23.05-7.57-43.69-10.2-64.05c-0.61-4.72,0.4-9.05,5.02-11.77
		c14.56-8.56,20.73-22.97,25.97-37.89c13.39-38.12,22.4-77.65,37.36-115.27c2.15-5.41,5.17-11.94-1.33-16.6
		c-6.58-4.72-12.48-1.14-17.88,3.04c-2.37,1.84-4.51,3.97-7.22,5.61c26.02-38.58,46.15-80.86,75.43-117.32
		c7.13-8.87,10.56-17.48-7.82-20.4c28.63-30.1,57.37-56.79,87.33-82.19c3.08-2.61,6.38-4.97,9.46-7.59c3-2.55,7.69-4.74,6.6-9.29
		c-1.42-5.96-7.69-2.08-11.66-4.04c41.44-22.87,82.55-45.49,124.72-66.19c21.17-10.39,42.93-18.34,65.14-24.12
		c-1.02-4.75-1.77-9.59-2.19-14.52c-41.75,4.11-82.93,11.67-122.48,28.29c-34.24,14.39-64.98,33.18-91.39,59.32
		c2.59-6.7,12.1-13.55,7.35-18.47c-6.48-6.71-13.22,2.78-19.09,6.76c-25.32,17.16-46.33,39.08-66.26,61.97
		c-16.4,18.84-28.32,40.33-36.24,64.26c-3,9.07,2.85,18.09-2.26,26.61c-8.02,13.35-15.76,26.87-23.62,40.32
		c5.21-21.04,12.94-41.05,20.71-61.04c3.84-9.89,8.13-19.69,7.72-30.62c-0.15-3.83,1.09-8.75-4.2-10.15
		c-4.13-1.1-6.27,2.44-8.34,5.3c-27.13,37.61-49.6,77.47-58.62,123.61c-3.29,16.86-8.6,35.4-0.76,50.65
		c7.57,14.72,4.77,26.73,1.38,40.4c-3.01,12.12-5.14,24.46-8.31,39.88c0.64-24.97-0.41-46.66,1.74-68.39
		c1.49-15.03-0.58-30.26-4.63-44.97c-1.51-5.5-3.99-10.93-10.83-10.94c-6.42-0.01-8.02,5.49-9.28,10.35
		c-2.8,10.73-5.6,21.49-7.68,32.37c-8.43,44.02-12.6,88.07,1.4,131.86c4.04,12.64,8.48,25.14,21.95,31.09c4.53,2,5.44,5.66,5.32,9.9
		c-0.52,18.91,3.2,37.45,6.02,60.57c-2.69-5.92-3.53-7.68-4.3-9.46c-12.03-27.82-18.46-57.79-32.58-84.82
		c-3.28-6.28-6.28-12.81-12.17-17.13c-4.16-3.05-9.02-5.39-14.09-2.9c-4.42,2.17-3.02,7.03-3.29,10.91
		c-1.08,15.23,1.08,30.27,3.14,45.26c5.69,41.59,17.76,80.83,43.28,115.02c9.04,12.11,19.63,21.94,35.25,24.13
		c5.98,0.84,8.43,4.31,10.54,9.33c7.76,18.46,15.84,36.78,25.29,58.61c-4.2-4.92-6.02-7.17-7.96-9.31
		c-20.73-22.79-37.55-48.98-60.43-69.9c-8.63-7.89-17.64-15.59-30.1-16.05c-8.4-0.31-14.03,2.5-10.54,12.77
		c19.3,56.82,48.09,106.85,100.31,140.04c13.56,8.62,28.14,14.22,44.5,10.22c5.89-1.44,9.81,0.09,13.19,4.47
		c12.95,16.74,27.92,31.67,42.16,47.66c-6.19-2.06-11.65-5.23-17.23-8.17c-29.4-15.53-56.3-35.95-88.86-45.33
		c-9.03-2.6-17.89-3.48-26.66,0.45c-7.89,3.54-11.2,8.82-4.83,16.5c8.05,9.72,15.76,19.82,24.63,28.74
		c30.97,31.15,65.04,58.1,108.64,68.98c21,5.24,42.95,8.99,62.4-6.3c4.57-3.59,8.48-1.18,12.42,1.36
		c19.1,12.29,38.53,24.02,58.69,36.21c-31.75-5.47-63.47-11.15-95.26-16.34c-19.85-3.24-39.49-2.7-57.1,8.64
		c-10.91,7.02-11.32,14.16-0.73,20.97c48.47,31.16,100.02,53.12,159.27,49.3c23.92-1.54,45.94-8.26,60.07-29.83
		c3.94-6.01,8.36-5.49,14.31-3.98c23.29,5.92,46.7,11.36,72.3,17.51c-31.81,5.15-61.8,9.27-91.47,15.03
		c-24.82,4.82-49.95,10.46-66.39,32.53c-9.89,13.28-7.58,19.25,8.24,23.3c24.06,6.15,48.44,10.02,73.36,9.98
		c56.07-0.1,108.88-7.91,143.21-61.03c10.39,21.31,27.1,34.68,47.43,43.86c57.04,25.75,115.19,19.91,173.53,5.6
		c8.42-2.07,9.7-7.83,6.08-15.2c-5.33-10.86-13.75-18.56-24.38-24.03c-14.95-7.71-30.83-12.49-47.36-15.42
		c-28.78-5.1-58.01-7.67-86.47-15.07c23.49-5.55,46.79-11.03,70.07-16.6c4.48-1.07,8.57-2.61,12,2.52
		c17.19,25.74,43.6,30.65,71.76,31.13c54.79,0.95,102.29-20.69,147.54-48.57c11.89-7.33,11.28-15.72-1.07-22.91
		c-16.93-9.87-35.52-10.98-54.4-7.86c-31.75,5.24-63.44,10.85-95.15,16.3c20.08-11.81,40.13-23.26,59.21-36.33
		c3.7-2.53,7.26-2.72,11.2-0.08c18.92,12.69,39.66,10.73,59.92,5.55c55.45-14.19,95.8-50.28,131.16-93.02
		c3.59-4.34,10.12-8.75,6.44-15.57c-19.9-36.9-117.64,19.88-132.27,43.43c8.27-13.31,17.6-25.97,27.85-37.82
		c2.98-3.44,6.16-6.91,10.3-8.8c6.12-2.8,13.2-1.72,19.93-2.03c13.61-0.64,26.18-7.15,38.02-13.88
		c47.61-27.04,75-78.63,93.73-128.13C1334.24,878.48,1339.56,871.45,1333.25,866.08z"/>
        <path class="st1" d="M799.31,400.07c-6.55,0-10.86-3.39-12.94-7.87c-1.04-2.01-1.63-4.29-1.63-6.71c0-2.42,0.59-4.71,1.64-6.72
		c2.08-4.47,6.39-7.86,12.94-7.86c6.53,0,10.84,3.38,12.93,7.84c1.05,2.02,1.65,4.31,1.65,6.74c0,2.43-0.59,4.72-1.65,6.74
		C810.16,396.69,805.85,400.07,799.31,400.07z"/>
        <g>
		<path class="st1" d="M489.98,901.05c115.14-0.22,218.25,33.94,309.33,102.47c91.08-68.53,194.2-102.68,309.34-102.47
			c15.3-101.4,37.54-202.81,73.47-304.21h-92.82v25.81h55.44c-31.2,82.27-45.78,166.05-58,250.05
			c-64.53,1.75-126.23,17.59-185.6,45.11c44.74-36.13,104.62-48.73,164.98-60.57v-326.1l-65.73,32.19v25.81l43.82-20.65v271.99
			c-83.48,7.17-164.84,50.4-244.89,116c-80.05-65.6-161.41-108.83-244.89-116V568.48l43.82,20.65v-25.81l-65.73-32.19v326.1
			c60.36,11.84,120.23,24.44,164.98,60.57c-59.37-27.52-121.07-43.37-185.6-45.11c-12.22-83.99-26.8-167.77-58-250.05h55.44v-25.81
			h-92.82C452.44,698.24,474.67,799.65,489.98,901.05"/>
            <path class="st1" d="M718.99,667.19l-34-126.91c9.9-13.17,4.8-32.2-10.37-38.69l-0.04-0.15c-0.34,0.09-4.5-1.89-9.96-1.89
			c-5.46,0-9.63,1.98-9.96,1.89l-0.04,0.15c-15.17,6.48-20.26,25.52-10.37,38.69l-34.01,126.91h-25.82
			c9.64,35.24,41.9,61.15,80.19,61.15c38.3,0,70.55-25.91,80.2-61.15H718.99z M620.93,667.19l32.03-119.54
			c7.29,3.77,16.04,3.77,23.32,0l32.03,119.54H620.93z"/>
            <path class="st1" d="M901.46,774.73h-50.71c-2.37-18.17-14.14-33.39-30.28-40.61V359.71h-2.04c4.58-4.28,7.73-10.07,8.64-16.58
			h63.43c13.99,0,13.99-21.27,0-21.27h-37.06c-0.17-8.89-7.5-16.11-16.43-16.11h-19.04v-18.85h-0.83
			c8.77-5.8,14.56-15.74,14.56-27.04c0-17.89-14.51-32.39-32.4-32.39c-32.06,0-44.45,41.84-17.83,59.43h-0.83v18.85h-19.04
			c-8.93,0-16.26,7.22-16.43,16.11h-37.06c-13.99,0-13.99,21.27,0,21.27h63.43c0.91,6.51,4.06,12.3,8.64,16.58h-2.04v374.41
			c-16.13,7.22-27.91,22.44-30.27,40.61h-50.7h-89.3v20.16c69.66,15.84,133.87,51.24,191.45,93.82
			c57.58-42.58,121.79-77.98,191.45-93.82v-20.16H901.46z"/>
            <path class="st1" d="M988.37,667.19l-34.01-126.91c9.9-13.17,4.8-32.2-10.37-38.69l-0.04-0.15c-0.33,0.09-4.5-1.89-9.96-1.89
			c-5.46,0-9.63,1.98-9.96,1.89l-0.04,0.15c-15.17,6.48-20.27,25.52-10.37,38.69l-34,126.91h-25.82
			c9.64,35.24,41.9,61.15,80.2,61.15c38.29,0,70.55-25.91,80.19-61.15H988.37z M890.31,667.19l32.03-119.54
			c7.29,3.77,16.04,3.77,23.32,0l32.04,119.54H890.31z"/>
	</g>
        <path class="st0" d="M188.39,764.21c5.3,29.94,12.73,59.2,22.17,87.6l-60.58,8.29c43.7,208.34,189.75,381.78,389.92,459.58
		l-32.1,83.86c-244.81-94.97-418.82-315.2-454.44-575.53l-6.09-44.48L188.39,764.21z"/>
</g>
</svg>