<svg width="22" height="23" viewBox="0 0 22 23" fill="none" xmlns="http://www.w3.org/2000/svg">
<path d="M20.428 3.89571C20.707 3.57689 20.9886 3.26065 21.2625 2.93753C21.4243 2.74666 21.4347 2.53038 21.3075 2.36796C21.1812 2.20683 20.996 2.17193 20.7645 2.27188C20.633 2.32875 20.505 2.39424 20.3756 2.45628C18.325 3.43988 16.2743 4.42305 14.2245 5.40794C13.7807 5.62121 13.7361 5.95338 14.1038 6.27565C14.3794 6.51692 14.6554 6.75776 14.9349 6.99428C15.0119 7.05977 15.047 7.10501 14.9609 7.19721C14.7649 7.40703 14.5767 7.62417 14.3937 7.84519C14.308 7.94859 14.2648 7.93911 14.1969 7.82709C13.7694 7.11794 13.2174 6.51993 12.5408 6.04084C12.4192 5.95511 12.4283 5.8866 12.4936 5.77803C12.6009 5.60053 12.6982 5.41656 12.7969 5.23389C13.0102 4.83924 12.8285 4.53076 12.3785 4.52774C11.997 4.52516 11.6158 4.52387 11.2342 4.52904C11.1243 4.53033 11.0776 4.49845 11.0828 4.38384C11.0897 4.23348 11.0893 4.08269 11.0824 3.93233C11.0711 3.6958 10.947 3.55061 10.7614 3.54457C10.5693 3.53811 10.4278 3.69407 10.4218 3.9362C10.4153 4.18695 10.4148 4.43813 10.4218 4.68845C10.4308 5.01804 10.5849 5.17184 10.9163 5.17917C11.2256 5.18606 11.5349 5.18046 11.8447 5.18132C12.0796 5.18219 12.08 5.18305 11.9628 5.39502C11.2861 6.61644 10.6091 7.83786 9.93203 9.05886C9.90261 9.11185 9.86887 9.16183 9.83729 9.21352C9.82387 9.21008 9.81046 9.20663 9.79705 9.20319C9.79705 9.12736 9.79705 9.05153 9.79705 8.9757C9.79705 8.10843 9.79921 7.24159 9.79575 6.37431C9.79446 6.00595 9.63741 5.85084 9.27314 5.84654C8.97074 5.84266 8.66833 5.83749 8.36636 5.84869C8.176 5.85558 8.14658 5.81896 8.24393 5.64533C8.93699 4.4084 9.62141 3.16673 10.3097 1.92678C10.3318 1.88671 10.3387 1.83071 10.3967 1.81778C10.4032 1.82467 10.4114 1.82898 10.4114 1.83329C10.4148 1.98322 10.4157 2.13358 10.4209 2.28351C10.4295 2.53857 10.5468 2.67859 10.7493 2.68032C10.9548 2.68204 11.0768 2.54848 11.0824 2.29084C11.0897 1.96857 11.0876 1.64588 11.0837 1.32361C11.0815 1.1306 11.0984 0.93758 11.0672 0.744565C11.037 0.557582 10.9236 0.447288 10.751 0.405928C10.5758 0.363706 10.4231 0.421007 10.3179 0.573954C10.2734 0.638579 10.2344 0.707513 10.1964 0.776447C9.44662 2.12927 8.69602 3.48167 7.95017 4.83665C7.88961 4.94695 7.81519 5.00985 7.69319 5.03355C7.11045 5.14686 6.56015 5.35323 6.04532 5.64404C4.50474 6.51519 3.50971 7.80469 3.06453 9.51683C2.8798 10.2269 2.8824 10.9485 2.88759 11.6714C2.89494 12.6378 2.56788 13.4624 1.864 14.1363C1.61524 14.3745 1.36518 14.6136 1.13502 14.8691C0.686392 15.3676 0.950726 16.1427 1.60832 16.2693C1.97864 16.3409 2.3546 16.2909 2.72752 16.2982C2.84909 16.3004 2.89235 16.3361 2.88846 16.458C2.8811 16.6941 2.88846 16.9311 2.88629 17.1676C2.8785 17.9362 3.11299 18.62 3.62565 19.1973C4.20796 19.853 4.94213 20.1938 5.82425 20.218C6.29711 20.2309 6.5701 20.5105 6.57702 20.9758C6.58005 21.1692 6.58913 21.3636 6.57529 21.5561C6.54717 21.9452 6.68128 22.2377 7.04339 22.4105H12.311C12.6693 22.2511 12.8042 21.9788 12.7904 21.5885C12.7692 20.9801 12.7917 20.3705 12.783 19.7613C12.7701 18.8574 13.0378 18.0625 13.6414 17.3757C14.2224 16.7144 14.6191 15.9479 14.8514 15.1005C14.8904 14.9587 14.9332 14.9406 15.0677 14.9958C15.718 15.262 16.3725 15.5184 17.0271 15.7747C17.4286 15.932 17.7085 15.7166 17.6548 15.2935C17.6207 15.0238 17.5882 14.7537 17.5423 14.4857C17.5168 14.3366 17.5601 14.2927 17.7137 14.275C18.6343 14.1686 19.5532 14.0497 20.4721 13.932C20.7079 13.9019 20.8463 13.7709 20.8679 13.574C20.8909 13.3659 20.8017 13.2186 20.5751 13.1285C19.0622 12.5267 17.5497 11.9252 16.0338 11.3307C15.6847 11.1937 15.4134 11.4151 15.4532 11.7891C15.4826 12.0665 15.5064 12.3457 15.5562 12.6197C15.6124 12.9321 15.3667 12.8257 15.2339 12.8614C15.0379 12.9144 15.0768 12.7623 15.0759 12.6546C15.0742 12.5043 15.0772 12.3535 15.0751 12.2031C15.0664 11.6017 15.1088 10.9981 15.047 10.3988C15.0266 10.2036 15.0625 10.1123 15.2464 10.0257C16.4608 9.45566 17.6695 8.87273 18.8787 8.29197C19.3282 8.07612 19.3745 7.74911 19.0051 7.42383C18.7411 7.19118 18.4807 6.95379 18.2064 6.73363C18.081 6.63281 18.0758 6.57508 18.1839 6.45315C18.9367 5.60484 19.6808 4.74876 20.4275 3.89528L20.428 3.89571ZM15.345 13.5072C15.5228 13.4844 15.7028 13.4706 15.8785 13.4366C16.1696 13.3797 16.2808 13.2259 16.2505 12.9334C16.222 12.6572 16.1856 12.3819 16.1497 12.0799C17.2447 12.5129 18.315 12.9364 19.3853 13.3599C19.3853 13.375 19.3845 13.3901 19.384 13.4047C19.1292 13.4396 18.8748 13.4758 18.62 13.509C18.1714 13.5671 17.7223 13.6206 17.2741 13.6809C16.9496 13.7244 16.8216 13.8812 16.851 14.2039C16.8718 14.4318 16.9073 14.658 16.9354 14.8851C16.9475 14.9807 16.9419 15.0384 16.8129 14.9872C15.782 14.5762 14.7493 14.1699 13.7171 13.7619L13.7231 13.714C14.2635 13.6451 14.8043 13.5762 15.3446 13.5072H15.345ZM17.5657 7.0378C17.7937 7.23512 18.0156 7.43977 18.251 7.62805C18.3959 7.74394 18.4175 7.79392 18.2233 7.88526C17.1136 8.407 16.01 8.9421 14.9042 9.47203C14.3613 9.73225 13.8179 9.99248 13.2745 10.2523C13.2325 10.2721 13.1901 10.2906 13.1482 10.31L13.1274 10.2816C13.541 9.80808 13.9546 9.33459 14.3686 8.86153C14.7796 8.39192 15.1919 7.92317 15.6029 7.45313C15.8681 7.14939 15.8525 6.92837 15.5497 6.66426C15.2685 6.41955 14.9868 6.17526 14.6831 5.91159C16.4426 5.06715 18.1835 4.23219 19.9244 3.3968C19.9356 3.408 19.9469 3.4192 19.9581 3.4304C19.9036 3.49632 19.85 3.5631 19.7937 3.62773C19.0332 4.49715 18.2718 5.36572 17.5125 6.23601C17.2296 6.56043 17.2456 6.75948 17.5666 7.0378H17.5657Z" fill="white"/>
</svg>
