<svg width="47" height="46" viewBox="0 0 47 46" fill="none" xmlns="http://www.w3.org/2000/svg">
<path d="M21.8449 1.1674C23.0825 0.452864 24.6073 0.452864 25.8449 1.1674L41.7374 10.3429C42.975 11.0575 43.7374 12.378 43.7374 13.807V32.1581C43.7374 33.5872 42.975 34.9077 41.7374 35.6223L25.8449 44.7978C24.6073 45.5123 23.0825 45.5123 21.8449 44.7978L5.95238 35.6223C4.71478 34.9077 3.95238 33.5872 3.95238 32.1581V13.807C3.95238 12.378 4.71478 11.0575 5.95238 10.3429L21.8449 1.1674Z" fill="url(#paint0_radial_2073_264)"/>
<path d="M22.3449 2.03342C23.2731 1.49752 24.4167 1.49752 25.3449 2.03342L41.2374 11.209C42.1656 11.7449 42.7374 12.7353 42.7374 13.807V32.1581C42.7374 33.2299 42.1656 34.2203 41.2374 34.7562L25.3449 43.9318C24.4167 44.4677 23.2731 44.4677 22.3449 43.9318L6.45238 34.7562C5.52418 34.2203 4.95238 33.2299 4.95238 32.1581V13.807C4.95238 12.7353 5.52418 11.7449 6.45238 11.209L22.3449 2.03342Z" stroke="white" stroke-opacity="0.09" stroke-width="2"/>
<path d="M20.3992 31.9803C20.2338 31.9692 20.0985 31.8674 19.9991 31.7029C18.9068 29.8889 17.6864 28.1598 16.4653 26.4313C15.7233 25.3811 14.9644 24.3426 14.212 23.2995C13.9355 22.9157 13.9479 22.7505 14.2878 22.4137C14.6585 22.0469 15.0298 21.6813 15.4017 21.3165C15.6743 21.0488 15.8613 21.0312 16.179 21.2525C17.489 22.1637 18.8009 23.073 20.1037 23.9953C20.2933 24.1291 20.3789 24.1161 20.5221 23.934C22.625 21.2564 24.9365 18.774 27.5212 16.5514C28.4854 15.7225 29.4849 14.9398 30.5406 14.229C30.787 14.0632 31.0341 13.9764 31.3361 13.9855C31.9303 14.0038 32.5258 13.9934 33.1214 13.9901C33.3541 13.9888 33.5378 14.0625 33.6319 14.2884C33.726 14.5155 33.6489 14.7016 33.4776 14.8576C30.6909 17.3974 28.4017 20.3589 26.2262 23.4137C24.3325 26.0736 22.5695 28.8184 20.9182 31.635C20.7679 31.8909 20.6339 31.9849 20.3992 31.9796V31.9803Z" fill="white"/>
<defs>
<radialGradient id="paint0_radial_2073_264" cx="0" cy="0" r="1" gradientUnits="userSpaceOnUse" gradientTransform="translate(12.1935 51.9446) rotate(-61.0278) scale(67.3514 6875.21)">
<stop offset="0.0001" stop-color="#48FF70"/>
<stop offset="1" stop-color="#3A860C" stop-opacity="0.83"/>
</radialGradient>
</defs>
</svg>
