<svg width="47" height="47" viewBox="0 0 47 47" fill="none" xmlns="http://www.w3.org/2000/svg">
<path d="M21.8449 1.81779C23.0825 1.10326 24.6073 1.10326 25.8449 1.81779L41.7374 10.9933C42.975 11.7079 43.7374 13.0284 43.7374 14.4574V32.8085C43.7374 34.2376 42.975 35.5581 41.7374 36.2726L25.8449 45.4482C24.6073 46.1627 23.0825 46.1627 21.8449 45.4482L5.95238 36.2726C4.71478 35.5581 3.95238 34.2376 3.95238 32.8085V14.4574C3.95238 13.0284 4.71478 11.7079 5.95238 10.9933L21.8449 1.81779Z" fill="url(#paint0_radial_2073_255)"/>
<path d="M22.3449 2.68381C23.2731 2.14791 24.4167 2.14791 25.3449 2.68381L41.2374 11.8594C42.1656 12.3953 42.7374 13.3856 42.7374 14.4574V32.8085C42.7374 33.8803 42.1656 34.8707 41.2374 35.4066L25.3449 44.5822C24.4167 45.1181 23.2731 45.1181 22.3449 44.5822L6.45238 35.4066C5.52418 34.8707 4.95238 33.8803 4.95238 32.8085V14.4574C4.95238 13.3856 5.52418 12.3953 6.45238 11.8594L22.3449 2.68381Z" stroke="white" stroke-opacity="0.09" stroke-width="2"/>
<path d="M13.4487 29.5166C13.4487 29.4104 13.4487 29.3041 13.4487 29.1979C13.4624 29.1237 13.4718 29.0486 13.4906 28.9756C13.5549 28.7251 13.6575 28.4891 13.7919 28.2659C14.1796 27.6223 14.5682 26.9792 14.9567 26.336C15.5563 25.3438 16.1559 24.3515 16.7555 23.3592C17.2108 22.6057 17.6661 21.8523 18.1214 21.0988C18.7225 20.1043 19.3235 19.1098 19.9245 18.1153C20.4132 17.3067 20.9021 16.4982 21.3904 15.6895C21.575 15.384 21.7693 15.0834 21.9397 14.7709C22.1051 14.4678 22.3183 14.2126 22.6189 14.0258C22.8572 13.8777 23.1173 13.7703 23.3995 13.7617C23.5756 13.7563 23.7612 13.7981 23.9299 13.8537C24.367 13.9983 24.6928 14.2777 24.9197 14.6631C25.1211 15.0051 25.3226 15.3472 25.5272 15.6874C25.9431 16.3792 26.3612 17.0699 26.7783 17.761C27.4707 18.9078 28.1628 20.0545 28.8551 21.2014C29.2667 21.8833 29.679 22.5648 30.0901 23.2472C30.7647 24.3671 31.438 25.4876 32.113 26.6074C32.4495 27.1655 32.7916 27.7204 33.1248 28.2803C33.3367 28.6364 33.4676 29.015 33.4466 29.4338C33.4387 29.5887 33.4127 29.7374 33.3513 29.8787C33.1919 30.2449 32.8939 30.472 32.5161 30.6094C32.2064 30.7218 31.8842 30.7617 31.5522 30.7615C26.1241 30.7592 20.696 30.7595 15.2678 30.7599C14.9682 30.7599 14.6777 30.7174 14.3981 30.6126C13.9798 30.4559 13.6642 30.1994 13.5192 29.7803C13.4895 29.6944 13.4719 29.6048 13.4489 29.5169L13.4487 29.5166ZM22.4606 18.3309V24.0612H24.4487V18.3309H22.4606ZM22.4615 25.9813V27.8868H24.4493V25.9813H22.4615Z" fill="white"/>
<defs>
<radialGradient id="paint0_radial_2073_255" cx="0" cy="0" r="1" gradientUnits="userSpaceOnUse" gradientTransform="translate(12.1935 52.595) rotate(-61.0278) scale(67.3514 6875.21)">
<stop offset="0.0001" stop-color="#FAFF00"/>
<stop offset="1" stop-color="#807C20"/>
</radialGradient>
</defs>
</svg>
