<svg width="13" height="17" viewBox="0 0 13 17" fill="none" xmlns="http://www.w3.org/2000/svg">
<path d="M6.67701 0.250041C8.22429 2.44668 9.74016 4.60543 11.2637 6.75798C11.8114 7.53299 12.2349 8.35905 12.3981 9.30732C12.8883 12.1537 11.4537 14.7556 8.81486 15.8965C6.46867 16.9105 3.68051 16.0635 2.20064 14.2474C0.625027 12.3122 0.54077 10.1929 1.36649 7.95066C1.71501 7.00549 2.25886 6.16086 2.84789 5.35414C4.05278 3.70434 5.28447 2.07465 6.50544 0.43722C6.5445 0.385398 6.59352 0.340536 6.67701 0.249268V0.250041ZM3.5051 6.66748C3.48825 6.66516 3.47063 6.66284 3.45378 6.66052C3.19565 7.33576 2.92756 8.00713 2.68321 8.687C2.32014 9.69405 2.20294 10.7181 2.51776 11.7669C2.71921 12.4375 2.9873 13.064 3.57174 13.4879C4.34615 14.0494 5.3557 13.6859 5.6215 12.7608C5.81223 12.0972 5.54107 11.0994 4.75441 10.7723C4.37985 10.6168 4.09644 10.3608 3.94094 9.98256C3.56944 9.0776 3.43157 8.1332 3.50357 7.15631C3.51583 6.99389 3.5051 6.82991 3.5051 6.66748Z" fill="white"/>
</svg>
