<svg width="498" height="95" viewBox="0 0 498 95" fill="none" xmlns="http://www.w3.org/2000/svg">
<g clip-path="url(#clip0_418_49)">
<path d="M159.45 1.31955L158.294 2.762L158.015 3.10986L157.933 3.21263L157.811 3.26148L154.95 4.40413C153.197 5.11033 152.082 5.63324 151.174 6.24778C150.274 6.85665 149.556 7.57016 148.622 8.68857C144.707 13.4064 141.889 19.4503 140.937 25.2937L140.937 25.295C139.959 31.2016 140.631 38.395 142.872 46.6133M159.45 1.31955L142.389 46.7449M159.45 1.31955L159.264 1.39095M159.45 1.31955L159.264 1.39095M142.872 46.6133L142.389 46.7449M142.872 46.6133C142.872 46.6133 142.872 46.6132 142.872 46.6131L142.389 46.7449M142.872 46.6133C144.093 51.0856 150.167 65.4771 154.253 73.6735M142.389 46.7449C143.624 51.2667 149.717 65.6953 153.806 73.8971M154.253 73.6735C154.253 73.6731 154.253 73.6726 154.253 73.6722L153.806 73.8971M154.253 73.6735C156.367 77.8706 158.785 83.2237 160.762 87.9296C162.728 92.6121 164.282 96.7117 164.639 98.3777M154.253 73.6735C154.254 73.6737 154.254 73.6738 154.254 73.674L153.806 73.8971M153.806 73.8971L164.639 98.3777M159.264 1.39095C159.659 1.0014 160.114 0.667164 160.569 0.387899C161.448 -0.151827 162.266 -0.450184 162.487 -0.530649L162.489 -0.531517C162.506 -0.537546 162.522 -0.54356 162.535 -0.548292C162.541 -0.550592 162.551 -0.554386 162.561 -0.558681C162.566 -0.560638 162.576 -0.564947 162.589 -0.570818C162.595 -0.573702 162.606 -0.579132 162.619 -0.586674L162.62 -0.586826C162.625 -0.590002 162.642 -0.599455 162.664 -0.614779C162.944 -0.812384 163.072 -1.13512 163.058 -1.43683L163.057 -1.45076L163.056 -1.46464C162.099 -10.8036 165.272 -17.2741 171.255 -19.1232C174.665 -20.0909 177.24 -19.0114 178.802 -17.9342L178.804 -17.9323C179.838 -17.2296 180.662 -16.3616 181.238 -15.5266C181.815 -14.6916 182.115 -13.9321 182.166 -13.4339C182.165 -11.2016 180.517 -9.88228 179.455 -9.26923L179.454 -9.26824C178.618 -8.78108 177.801 -8.50848 177.158 -8.38315C176.836 -8.32039 176.566 -8.29616 176.365 -8.29757C176.216 -8.2986 176.137 -8.31361 176.106 -8.32007C176.098 -8.33 176.085 -8.34543 176.07 -8.36826C176.03 -8.42631 175.984 -8.5089 175.933 -8.61841C175.831 -8.8392 175.731 -9.11617 175.624 -9.41883L175.623 -9.42126L175.612 -9.45112C175.363 -10.1455 175.013 -11.119 174.349 -11.8677C173.642 -12.6647 172.602 -13.1829 171.071 -12.9897L171.07 -12.9896C170.058 -12.8592 169.206 -12.3471 168.558 -11.4998L168.558 -11.4994C167.682 -10.3512 167.255 -8.67215 167.093 -6.93009C166.929 -5.1742 167.028 -3.28111 167.262 -1.63839C167.304 -1.31552 167.508 -1.05813 167.776 -0.930567C167.778 -0.929617 167.78 -0.928846 167.781 -0.928286L167.786 -0.926331L167.797 -0.920908C167.807 -0.91638 167.821 -0.910103 167.835 -0.903913L167.838 -0.902952C168.036 -0.81613 168.915 -0.430357 169.88 0.189623C170.859 0.818178 171.86 1.64616 172.368 2.594L172.39 2.63555L172.42 2.6722C173.189 3.62323 173.471 4.37527 173.732 5.9001C173.88 6.83367 173.968 7.38299 174.21 7.96086C174.446 8.5253 174.826 9.10822 175.502 10.1449M159.264 1.39095L173.667 102.117C174.776 95.7377 174.103 89.9397 170.831 77.6717L170.348 77.8007C170.348 77.8006 170.348 77.8006 170.348 77.8005C166.672 64.037 166.023 57.7448 167.433 50.4771L167.434 50.4749C168.063 47.3096 169.382 43.8146 173.183 34.7327M175.502 10.1449C175.502 10.1447 175.502 10.1445 175.502 10.1443L175.922 9.87326L175.503 10.1464C175.503 10.1459 175.503 10.1454 175.502 10.1449ZM175.502 10.1449C176.284 11.3559 177.05 12.6871 177.226 13.1065L177.687 12.9136M177.687 12.9136L177.226 13.1066C178.393 15.8953 178.357 20.0646 177.02 24.6268L177.02 24.6276C176.557 26.2186 174.811 30.7611 173.183 34.7327M177.687 12.9136C178.916 15.8498 178.853 20.1483 177.5 24.7674L177.687 12.9136ZM173.183 34.7327C173.182 34.7334 173.182 34.7342 173.182 34.7349L173.644 34.9247L173.183 34.7317C173.183 34.732 173.183 34.7323 173.183 34.7327ZM164.639 98.3777C164.64 98.3788 164.64 98.3798 164.64 98.3809L164.151 98.4857L164.639 98.3761C164.639 98.3766 164.639 98.3771 164.639 98.3777ZM39.8003 -0.111864C39.9281 -0.0757008 40.0717 -0.0351353 40.2286 0.00909233C40.8924 0.196245 41.7945 0.449085 42.7471 0.711737C44.6407 1.23382 46.7679 1.80424 47.5967 1.96492L47.5972 1.965C60.3056 4.41724 67.9068 0.962885 76.0844 -2.75342L76.0949 -2.75816C81.7389 -5.32309 87.6511 -8.00757 95.7728 -9.03963L95.7728 -9.03984L95.785 -9.04133M95.785 -9.04133C95.7844 -9.04127 95.7861 -9.04141 95.7894 -9.04179M95.785 -9.04133C95.7853 -9.04137 95.787 -9.04153 95.7896 -9.04181M95.785 -9.04133L95.7854 -9.04143L95.7882 -9.04169C95.7874 -9.04161 95.787 -9.04158 95.7884 -9.0417L95.7894 -9.04179M95.7894 -9.04179L95.7896 -9.04181M95.7894 -9.04179C95.7909 -9.04197 95.7929 -9.04217 95.7952 -9.04246C95.793 -9.0422 95.7911 -9.04198 95.7896 -9.04181M157.625 2.79716L157.1 3.00706L156.943 3.35403L157.727 3.05282L157.874 2.9965L158.078 2.91817L158.083 2.91603L157.906 2.45493L157.901 2.45272L157.9 2.4547L157.625 2.79716ZM169.111 112.916H168.853C168.804 112.986 168.755 113.055 168.706 113.122L169.111 113.416V112.916ZM165.286 113.39C165.278 113.24 165.272 113.081 165.267 112.916H164.786V113.416L165.286 113.39Z" stroke="url(#paint0_linear_418_49)"/>
</g>
<defs>
<linearGradient id="paint0_linear_418_49" x1="6" y1="113.141" x2="183" y2="-19.8594" gradientUnits="userSpaceOnUse">
<stop stop-color="#0FF4C6"/>
<stop offset="1" stop-color="#0FF4C6" stop-opacity="0"/>
</linearGradient>
<clipPath id="clip0_418_49">
<rect width="498" height="95" fill="white"/>
</clipPath>
</defs>
</svg>
