<?xml version="1.0" encoding="UTF-8"?>
<!DOCTYPE svg PUBLIC "-//W3C//DTD SVG 1.1//EN" "http://www.w3.org/Graphics/SVG/1.1/DTD/svg11.dtd">
<!-- Creator: CorelDRAW -->
<svg xmlns="http://www.w3.org/2000/svg" xml:space="preserve" width="1499.11mm" height="943.857mm" version="1.1" style="shape-rendering:geometricPrecision; text-rendering:geometricPrecision; image-rendering:optimizeQuality; fill-rule:evenodd; clip-rule:evenodd"
viewBox="0 0 149901.92 94380.06"
 xmlns:xlink="http://www.w3.org/1999/xlink"
 xmlns:xodm="http://www.corel.com/coreldraw/odm/2003">
 <defs>
  <style type="text/css">
   <![CDATA[
    .fil0 {fill:#DC00B7}
    .fil4 {fill:white}
    .fil5 {fill:#DC00B7;fill-rule:nonzero}
    .fil2 {fill:#DC00B7}
    .fil3 {fill:#DC00B7}
    .fil1 {fill:#FEFEFE;fill-rule:nonzero}
   ]]>
  </style>
 </defs>
 <g id="Camada_x0020_1">
  <metadata id="CorelCorpID_0Corel-Layer"/>
  <g id="_2924253352848">
   <path class="fil0" d="M52254.98 38388.8l128.94 257.86 0 45757.17c0,105.91 -32.64,179.19 -97.89,219.84l-2016.53 1256.56c-40.65,25.37 -93.95,38.03 -159.98,38.03l-16362.58 655.37c-4904.94,-9783.96 -8345.86,-16604.53 -10327.9,-20476.95l0 17393.96c0,107.49 -33.61,181.37 -98.21,221.64l-2016.53 1256.56c-38.74,24.12 -88.55,36.17 -148.9,36.17 -7026.34,354.56 -10937.01,537.19 -11710.56,537.19 -171.88,75.19 -290.06,118.18 -376,118.18 -171.94,-311.56 -966.93,-9368.44 -2395.86,-27159.9l-1385.94 -16899.77 2016.53 -1256.56 257.87 -128.93 17372.45 -537.18c5923.87,11518.59 9872.51,19244.22 11851.55,23190.85 1188.85,-13029.31 1895.07,-20474.92 2118.45,-22310.3l2016.53 -1256.55c3824.73,-247.12 7595.77,-558.68 11334.55,-913.24zm37415.51 44664.24l-2011.88 1253.67c-15546.09,698.31 -24022.8,1042.12 -25430.22,1042.12 -171.94,-333.06 -1890.93,-15449.35 -5156.97,-45359.66l2016.53 -1256.55 247.13 -118.19c18887.32,623.12 28330.96,1063.63 28330.96,1321.49 7112.33,3566.86 10679.18,5436.29 10700.68,5629.65l3394.98 15868.35c-2180.93,9056.88 -3351.98,13816.35 -3523.91,14256.84 -5156.91,4512.3 -8014.77,6961.84 -8562.65,7359.4l-4.64 2.89zm52385.95 -27761.58l-153.98 95.97c-1.69,9.33 -2.51,19.38 -2.51,30.07l-2016.53 1256.55c-3020.18,-194.57 -5760.45,-349.15 -8210.54,-458.55 -1104.15,15376.56 -1792.76,24602.32 -2085.17,27683.39l-2016.53 1256.56c-376,150.37 -4275.97,376 -11699.81,666.12l-161.18 -247.13 -504.93 -31414.43c-8014.77,-1246.25 -12194.05,-1955.3 -12527.11,-2148.73l-2009.05 -11173.37 148.08 -92.27c1.53,-8.13 2.35,-16.8 2.35,-25.92l2016.53 -1256.55 40073.76 -537.19c0,85.94 53.75,128.94 150.44,128.94l-999.18 16233.65 -4.64 2.89zm-64336.53 -1471.65c-253.12,2597.36 -885.75,8625.45 -1893.38,18089.16l128.93 0c3246.84,-723.58 5599.43,-1290.38 7055.09,-1702.73 2177.49,-4958.13 3262.07,-7511.51 3262.07,-7676.9 -1106.56,-1976.86 -2073.5,-4114.84 -2889.99,-6424.71 -948.6,-770.66 -2833.9,-1532.27 -5662.72,-2284.82z"/>
   <path class="fil1" d="M52254.97 38388.84l128.92 257.84 0 45757.14c0,171.9 -85.95,257.85 -257.85,257.85l-16362.55 655.36c-8122.19,-16201.4 -12237,-24291.36 -12344.43,-24291.36l0 22464.94c0,171.9 -85.95,257.84 -247.11,257.84 -7026.34,354.54 -10937.02,537.19 -11710.56,537.19 -171.9,75.21 -290.08,118.17 -376.03,118.17 -171.9,-311.56 -966.93,-9368.45 -2395.83,-27159.91l-1385.94 -16899.73 257.85 -128.93 17372.45 -537.18c8895.73,17297.26 13343.59,26053.31 13343.59,26278.93l128.92 0c1428.9,-15728.68 2266.91,-24624.41 2514.01,-26654.96 3824.74,-247.11 7595.76,-558.67 11334.54,-913.21zm7080.05 225.62c18887.31,623.13 28330.97,1063.62 28330.97,1321.46 7112.29,3566.89 10679.17,5436.29 10700.66,5629.66l3394.99 15868.35c-2180.96,9056.89 -3352.01,13816.32 -3523.91,14256.81 -5156.95,4512.32 -8014.75,6961.87 -8562.68,7359.39 -15546.04,698.33 -24022.77,1042.13 -25430.18,1042.13 -171.9,-333.05 -1890.89,-15449.35 -5156.95,-45359.63l247.11 -118.17zm18511.28 13622.93l0 128.92c0,419 -676.85,6929.65 -2019.8,19542.67l128.92 0c5640.4,-1257 8584.16,-2041.29 8809.77,-2363.6 2352.86,-5350.33 3523.92,-8100.7 3523.92,-8272.6 -1106.59,-1976.83 -2073.53,-4114.81 -2890.04,-6424.7 -1031.39,-838 -3169.37,-1665.26 -6424.7,-2481.78l-1128.08 -128.92zm65063.46 -13311.37c0,85.95 53.72,128.92 150.41,128.92l-999.16 16233.63c-107.43,0 -161.15,42.98 -161.15,128.93 -3835.48,-247.11 -7219.73,-429.74 -10131.26,-537.19 -1160.31,16179.91 -1880.14,25849.19 -2180.95,29018.56 -376.03,150.41 -4275.97,376.03 -11699.82,666.11l-161.16 -247.11 -504.95 -31414.38c-8014.75,-1246.27 -12194.02,-1955.34 -12527.07,-2148.73l-2009.06 -11173.38c96.69,0 150.41,-42.97 150.41,-118.17l40073.76 -537.19z"/>
   <path class="fil1" d="M52254.97 38388.84l128.92 257.84 0 45757.14c0,171.9 -85.95,257.85 -257.85,257.85l-16362.55 655.36c-8122.19,-16201.4 -12237,-24291.36 -12344.43,-24291.36l0 22464.94c0,171.9 -85.95,257.84 -247.11,257.84 -7026.34,354.54 -10937.02,537.19 -11710.56,537.19 -171.9,75.21 -290.08,118.17 -376.03,118.17 -171.9,-311.56 -966.93,-9368.45 -2395.83,-27159.91l-1385.94 -16899.73 257.85 -128.93 17372.45 -537.18c8895.73,17297.26 13343.59,26053.31 13343.59,26278.93l128.92 0c1428.9,-15728.68 2266.91,-24624.41 2514.01,-26654.96 3824.74,-247.11 7595.76,-558.67 11334.54,-913.21zm7080.05 225.62c18887.31,623.13 28330.97,1063.62 28330.97,1321.46 7112.29,3566.89 10679.17,5436.29 10700.66,5629.66l3394.99 15868.35c-2180.96,9056.89 -3352.01,13816.32 -3523.91,14256.81 -5156.95,4512.32 -8014.75,6961.87 -8562.68,7359.39 -15546.04,698.33 -24022.77,1042.13 -25430.18,1042.13 -171.9,-333.05 -1890.89,-15449.35 -5156.95,-45359.63l247.11 -118.17zm18511.28 13622.93l0 128.92c0,419 -676.85,6929.65 -2019.8,19542.67l128.92 0c5640.4,-1257 8584.16,-2041.29 8809.77,-2363.6 2352.86,-5350.33 3523.92,-8100.7 3523.92,-8272.6 -1106.59,-1976.83 -2073.53,-4114.81 -2890.04,-6424.7 -1031.39,-838 -3169.37,-1665.26 -6424.7,-2481.78l-1128.08 -128.92zm65063.46 -13311.37c0,85.95 53.72,128.92 150.41,128.92l-999.16 16233.63c-107.43,0 -161.15,42.98 -161.15,128.93 -3835.48,-247.11 -7219.73,-429.74 -10131.26,-537.19 -1160.31,16179.91 -1880.14,25849.19 -2180.95,29018.56 -376.03,150.41 -4275.97,376.03 -11699.82,666.11l-161.16 -247.11 -504.95 -31414.38c-8014.75,-1246.27 -12194.02,-1955.34 -12527.07,-2148.73l-2009.06 -11173.38c96.69,0 150.41,-42.97 150.41,-118.17l40073.76 -537.19z"/>
   <path class="fil2" d="M135935.98 76638.98l3863.79 -6880.58c-501.64,499.78 -7253.74,9717.93 -7352.13,9996.18 301.19,131.17 3355.79,690.86 3959.56,824.25 446.97,98.82 931.25,257.02 1334.04,228.34l-2908.12 -1000.3c5653.51,-4534.89 6802.49,-30.48 10176.99,2658.76 515.56,410.79 1008.35,643.23 1489.64,995.45 -474.94,89.7 -703.01,-163.98 -2008.94,255.88 -656.6,211.07 -1326.75,492.31 -1984.17,775.63 -3408.71,1468.9 -5482.76,1150.8 -7507.56,-2394.52 -859.42,-1504.74 -436.42,-1436.36 -1278.71,-1571.76 -1410.7,-226.75 -1447.15,-495.25 -1925.65,19.65l-773.69 -764.53 2748.82 -3589.46 -1027.96 -3748.09c-876.23,-3903.18 -1053.27,-8330.12 2044.62,-11408.38 2053.59,-2040.68 5300.77,-3176.08 7661.85,-3971.82 2150.41,-724.7 5036.28,-1735.92 6661.91,-3442.36l639.57 -772.35c114.17,-93.04 67.61,-62.15 152.03,-88.33 -698.5,1175.98 -1415.61,5064.83 -1442.78,6642.55 -6.27,360.44 -79.33,590.18 -59.26,964.63 31.94,595.3 -48.99,1256.72 -55.75,1874.26 -78.16,7107.18 422.75,12082.4 -8551.85,13928.51 -756.15,155.52 -3360.34,570.04 -3856.26,468.38z"/>
   <g>
    <path class="fil3" d="M86275.34 26471.77c-46.44,612.73 97.17,207.26 -176.3,705.61l-516.41 680.24c5156.41,858.26 194.35,6784.34 4952.16,8401.97 -175.86,-1473.14 -579.2,-2187.35 -528.89,-3694.46 48.6,-1468.84 334.53,-2026.96 182.75,-3641.99l566.3 -297.55c63.64,-39.56 204.24,-122.12 274.33,-166.84 70.09,-45.15 202.52,-141.03 265.72,-182.74 62.79,-41.29 173.29,-126.42 258.85,-191.35 -2295.27,-806.23 -1946.12,-1590.96 -3697.03,-2475.44 -677.66,-342.27 -1559.14,-604.56 -2248.41,-1008.75 -1456.8,-854.82 -410.65,-770.1 -2263.45,-1315.76 477.71,1863.14 1449.05,2241.1 2930.37,3187.07z"/>
    <path class="fil3" d="M145351.36 7079.75c-912.44,593.38 -1768.54,542.65 -2956.59,708.62 818.26,824.72 1747.9,762.8 2558,1877.33 1196.65,1645.99 8.6,1504.1 2225.62,2223.47 39.13,-75.25 63.64,-295.4 71.38,-243.81l292.39 -1491.62 2359.77 -161.68c-557.27,-2002.45 -242.95,-625.2 -2217.88,-1602.13 -88.57,-1860.13 178.02,-2086.73 -283.36,-4043.17 -486.74,-2065.24 -475.13,-2213.15 -153.93,-4346.75 -920.18,571.03 -1580.21,1628.36 -1870.45,2778.15 -423.1,1674.8 31.39,2674.52 -24.94,4301.59z"/>
    <path class="fil3" d="M31651.84 43415.44l-1794.34 709.91 1837.34 905.99c3521.6,1254.71 1109.36,2300 5513.3,3158.26 -2938.96,-2952.29 -1097.75,-1780.15 -1642.98,-4110.25l-1702.75 -409.35 -2427.72 -8532.68c-274.33,-838.05 -55.04,-405.48 -451.05,-941.24 -238.22,1542.37 -850.95,3013.36 -512.98,4736.32 326.36,1664.05 991.98,2782.88 1181.18,4483.05z"/>
    <path class="fil3" d="M48008.57 14724.93l-1044.01 1133.88c-73.97,73.1 -180.6,171.13 -242.52,231.76 -63.64,61.07 -171.57,149.64 -249.83,232.2 1859.7,223.6 1313.61,842.35 2759.67,892.66 408.06,14.62 2210.57,-300.13 3272.63,-346.57 -811.39,-1071.97 -3861.29,-1576.77 -2655.6,-9663.97 -917.6,571.88 -1540.65,1722.1 -2020.52,2849.09 -816.11,1915.6 -124.26,2653.03 180.17,4670.96z"/>
    <path class="fil3" d="M-0 26863.92l2640.13 1248.26c-296.26,355.17 -187.05,242.52 -647.56,562.86l-701.32 454.06c-53.75,34.4 -169.41,94.17 -246.81,152.22 3399.48,723.67 2850.82,4004.04 5171.46,6927.53l-497.07 -5294.86 1242.24 -944.68c54.61,-49.02 155.66,-154.8 199.95,-196.08 45.15,-42.14 138.88,-131.14 200.37,-203.81 -2790.61,-1069.39 -5125.02,-4298.16 -7361.39,-2705.49z"/>
    <path class="fil3" d="M106364.37 20913.74l-2273.77 620.04c990.26,969.62 718.08,682.4 2817.7,1070.68 629.07,2468.56 1381.13,3374.54 3061.95,4758.25 72.24,-1292.11 -497.93,-1959.45 -811.82,-3536.22 921.04,-733.14 770.11,-410.22 1662.77,-728.41 -1249.55,-2063.51 -1999.88,278.2 -2480.17,-3328.1l-480.73 -2028.68c-2128.86,430.84 -1656.74,853.09 -1495.92,3172.44z"/>
    <path class="fil3" d="M132875.7 16909.27c-385.7,531.47 -269.17,270.03 -485.03,539.64 -374.95,468.25 -349.15,285.94 -739.58,1016.49 4329.54,794.18 2264.31,407.2 3405.51,3265.33 453.2,1135.17 861.26,1136.89 1200.09,1352.74 546.09,-1143.33 374.96,-2576.92 479.44,-3989.85l1382.84 -660.89c-1704.9,-1024.23 -1179.03,102.76 -2807.39,-2033.42 -1037.13,-1360.48 -1523.44,-1117.96 -3758.09,-1231.49 437.29,1467.55 384.41,380.12 1322.21,1741.46z"/>
    <path class="fil3" d="M75010.51 13809.06l95.46 3822.59 -1963.75 1273.62c3441.61,198.66 -312.17,829.45 6415.85,350.87 -1044.88,-1268.89 -257.99,-336.68 -1888.51,-1254.71 -317.33,-2810.82 -1013.91,-3485.48 202.52,-5738.62 -1550.1,84.28 -1508.82,853.96 -2861.57,1546.24z"/>
    <path class="fil3" d="M54790.34 22370.11l-965.75 1443.47c829.88,236.06 1940.96,703.03 2943.26,292.38l1176.45 -1054.33c1064.65,-990.26 879.33,-567.16 1594.82,-2149.51 -823.43,432.14 -1334.25,931.78 -2646.57,992.85 -1037.14,-1134.31 -1729.85,-3505.26 -2166.71,-4612.05 -287.23,-726.25 -113.94,-386.99 -466.54,-843.64 -1160.1,3598.15 -883.62,2738.17 531.04,5930.83z"/>
   </g>
  </g>
  <path class="fil4" d="M100560.49 89007.87l159.52 1561.52 2441.97 -208.47 129.03 3643.13 -261.52 316.45 -3772.18 59.56 59.57 -565.83 261.52 -316.44 2094.13 -454.49 96.27 -1115.17 -2392.34 198.56 -238.28 -4268.53 261.52 -316.44 3385.03 59.56 -59.56 883.5 -261.52 316.44 -1903.18 206.66zm14830.54 0l1903.18 -206.66 261.52 -316.44 59.56 -883.5 -3385.03 -59.56 -261.52 316.44 238.28 4268.53 2392.34 -198.56 -96.28 1115.17 -2094.12 454.49 -261.53 316.44 -59.56 565.83 3772.17 -59.56 261.53 -316.45 -129.03 -3643.13 -2441.97 208.47 -159.52 -1561.52zm13570.54 -1198.12l-261.52 316.44 -242.2 3196.8 -1858.85 -3771.35 -1628 0 -261.52 316.44 625.38 6511.98 565.83 0 261.52 -316.44 213.53 -3096.07 2205.2 3352.95 1072.09 -69.48 261.52 -316.45 -377.23 -6194.31 -575.75 69.49zm4304.83 107.96l-59.56 6392.87 1270.6 59.56 261.52 -316.44 -367.27 -6511.98 -843.78 59.56 -261.52 316.44zm2495.07 -316.44l843.78 -59.56 367.26 6511.98 -261.52 316.44 -1270.6 -59.56 59.57 -6392.87 261.52 -316.44zm-16607.55 -59.56l4804.54 0 -675.02 6224.11 -261.52 316.44 -3514.06 248.16 -615.46 -6472.26 261.52 -316.44zm1667.71 5300.89l1437.9 -213.99 395.12 -3509.74 -2346.43 175.77 513.41 3547.96zm-12855.11 -4367.76l148.87 -863.62 -3762.22 -69.52 -261.52 316.44 377.19 6521.9 3365.19 -248.16 261.52 -316.44 -49.64 -754.46 -2104.46 -49.64 -178.9 -1252.22 1942.44 -257.84 261.52 -316.45 0 -684.94 -2442.01 -178.67 195.92 -1395.86 1984.57 -134.09 261.52 -316.44zm4864.1 -754.46l-3960.76 -178.67 -261.53 316.44 416.92 6343.23 416.91 49.64 261.52 -316.45 342.93 -1379.75 1619.16 -160.11 665.1 1985.34 545.95 -129.03 261.52 -316.45 -307.71 -6214.19zm-2710 3325.47l401.53 -1836.79 418.95 -40.54 466.13 1932.28 -1286.61 -54.96z"/>
  <polygon class="fil5" points="100531.37,88723.02 100719.98,90569.39 103161.96,90360.94 103291,94004.06 99518.84,94063.61 99578.39,93497.79 101911.19,92991.53 102030.31,91611.71 99637.96,91810.24 99399.72,87541.73 102784.74,87601.3 102725.18,88484.78 "/>
  <polygon id="_1" class="fil5" points="107966.5,88474.85 105762.77,88623.75 105524.52,90321.23 107966.5,90499.91 107966.5,91184.86 105723.06,91482.66 105941.45,93011.38 108045.92,93061.01 108095.56,93815.45 104730.38,94063.61 104353.16,87541.73 108115.41,87611.22 "/>
  <path id="_2" class="fil5" d="M112830.61 87720.41l307.73 6214.16 -545.98 129.04 -665.09 -1985.35 -1806.67 178.68 -416.93 1677.63 -416.92 -49.64 -416.93 -6343.2 3960.77 178.68zm-2710.01 3325.47l1627.99 69.49 -545.98 -2263.3 -615.45 59.57 -466.56 2134.25z"/>
  <polygon id="_3" class="fil5" points="115361.94,88723.02 115550.55,90569.39 117992.54,90360.94 118121.58,94004.06 114349.41,94063.61 114408.97,93497.79 116741.76,92991.53 116860.88,91611.71 114468.54,91810.24 114230.29,87541.73 117615.32,87601.3 117555.75,88484.78 "/>
  <path id="_4" class="fil5" d="M119153.96 87541.73l0 0 4804.55 0 -675.02 6224.08 -3514.07 248.17 -615.46 -6472.24zm1667.7 5300.89l0 0 1667.69 -248.18 426.85 -3792.01 -2650.44 198.53 555.9 3841.66z"/>
  <polygon id="_5" class="fil5" points="128842.48,94004.06 126420.34,90321.23 126162.25,94063.61 125596.42,94063.61 124971.04,87551.66 126599.02,87551.66 128663.79,91740.75 128961.59,87809.76 129537.35,87740.27 129914.56,93934.57 "/>
  <polygon id="_6" class="fil5" points="133527.91,87601.3 134371.68,87541.73 134738.97,94053.68 133468.34,93994.13 "/>
  <polygon id="_7" class="fil5" points="135761.42,87601.3 136605.19,87541.73 136972.48,94053.68 135701.86,93994.13 "/>
 </g>
</svg>
