<svg width="18.48" height="20" viewBox="0 0 12 13" fill="none" xmlns="http://www.w3.org/2000/svg">
<g clip-path="url(#clip0_57_14)">
<path d="M4.71418 0C4.24007 0 3.85704 0.363086 3.85704 0.8125C3.85704 1.26191 4.24007 1.625 4.71418 1.625H5.14275V2.49844C2.47222 2.88945 0.428467 5.07812 0.428467 7.71875C0.428467 10.6361 2.92222 13 5.9999 13C9.07757 13 11.5713 10.6361 11.5713 7.71875C11.5713 6.65742 11.2419 5.66973 10.674 4.84453L11.3195 4.23262C11.6544 3.91523 11.6544 3.3998 11.3195 3.08242C10.9847 2.76504 10.441 2.76504 10.1061 3.08242L9.52757 3.63086C8.77489 3.04688 7.8615 2.6457 6.85704 2.49844V1.625H7.28561C7.75972 1.625 8.14275 1.26191 8.14275 0.8125C8.14275 0.363086 7.75972 0 7.28561 0H5.9999H4.71418ZM6.64275 4.875V8.125C6.64275 8.4627 6.35614 8.73438 5.9999 8.73438C5.64365 8.73438 5.35704 8.4627 5.35704 8.125V4.875C5.35704 4.5373 5.64365 4.26562 5.9999 4.26562C6.35614 4.26562 6.64275 4.5373 6.64275 4.875Z" fill="#00a551"/>
</g>
<defs>
<clipPath id="clip0_57_14">
<rect width="12" height="13" fill="white"/>
</clipPath>
</defs>
</svg>
