<svg width="27" height="21" viewBox="0 0 27 21" fill="none" xmlns="http://www.w3.org/2000/svg">
<g clip-path="url(#clip0_125_6)">
<path fill-rule="evenodd" clip-rule="evenodd" d="M9.57568 20.4694L7.00928 17.8785H5.24268C4.62524 17.8785 4.11987 17.3679 4.11987 16.7441V14.8126H3.0498V17.0726C3.0498 17.5544 2.65869 17.9496 2.18188 17.9496H0.86792C0.391113 17.9496 0 17.5544 0 17.0726V9.41326C0 8.93149 0.391113 8.53632 0.86792 8.53632H2.18188C2.65869 8.53632 3.0498 8.93149 3.0498 9.41326V11.6733H4.11987V9.59531C4.11987 8.97146 4.62524 8.46083 5.24268 8.46083H7.11914L9.77124 5.61243C10.0789 5.34158 10.4875 5.24611 10.9644 5.2661H21.8914C22.2693 5.30828 22.5571 5.45481 22.7329 5.7301C22.9087 6.00095 22.8801 6.15414 22.8801 6.45829V11.6733H23.9502V9.41326C23.9502 8.93149 24.3413 8.53632 24.8181 8.53632H26.1321C26.6089 8.53632 27 8.93149 27 9.41326V17.0726C27 17.5544 26.6089 17.9496 26.1321 17.9496H24.8181C24.3413 17.9496 23.9502 17.5544 23.9502 17.0726V14.8126H22.8801V15.0168C22.8801 15.6229 22.8977 15.9892 22.5154 16.491C22.4429 16.5864 22.3616 16.6775 22.2715 16.7618L18.3538 20.6381C18.1582 20.8579 17.8616 20.9778 17.4705 21H10.7908C10.292 20.9778 9.8855 20.8046 9.57568 20.4694ZM13.9988 13.7158L11.2214 13.4516L13.5242 8.35427H16.6729L14.8865 11.2781L18.0989 11.6378L12.2014 18.791L13.9988 13.7158ZM11.4214 0H19.002C19.4788 0 19.8699 0.395179 19.8699 0.876943V2.20457C19.8699 2.68633 19.4788 3.08151 19.002 3.08151H16.7651V4.19822H13.6582V3.08151H11.4214C10.9446 3.08151 10.5535 2.68633 10.5535 2.20457V0.876943C10.5535 0.395179 10.9446 0 11.4214 0Z" fill="#E48023"/>
</g>
<defs>
<clipPath id="clip0_125_6">
<rect width="27" height="21" fill="white"/>
</clipPath>
</defs>
</svg>
