<svg width="19" height="12" viewBox="0 0 19 12" fill="none" xmlns="http://www.w3.org/2000/svg">
<path d="M2.01977 9.74008C2.01977 10.8445 2.91874 11.741 4.02277 11.741H15.9228C17.0268 11.741 17.9258 10.8445 17.9258 9.74008V8.44734H2.01977V9.74008ZM18.0129 5.38692C18.055 5.38692 18.1 5.39536 18.1421 5.39817C17.9342 2.61597 15.5997 0.409882 12.768 0.409882H7.17758C4.34865 0.409882 2.01134 2.61878 1.80346 5.39817C1.8456 5.39536 1.88774 5.38692 1.92988 5.38692H18.0129ZM13.726 2.5148H14.4058C14.5659 2.5148 14.6952 2.64407 14.6952 2.80426C14.6952 2.96445 14.5659 3.09372 14.4058 3.09372H13.726C13.5658 3.09372 13.4366 2.96445 13.4366 2.80426C13.4366 2.64407 13.5658 2.5148 13.726 2.5148ZM12.4028 1.35133H13.0798C13.24 1.35133 13.3692 1.4778 13.3692 1.64079C13.3692 1.80098 13.24 1.93025 13.0798 1.93025H12.4028C12.2399 1.93025 12.1134 1.80098 12.1134 1.64079C12.1134 1.48061 12.2399 1.35133 12.4028 1.35133ZM12.4028 3.67826H13.0798C13.24 3.67826 13.3692 3.80754 13.3692 3.96772C13.3692 4.13072 13.24 4.25718 13.0798 4.25718H12.4028C12.2399 4.25718 12.1134 4.13072 12.1134 3.96772C12.1134 3.81035 12.2399 3.67826 12.4028 3.67826ZM10.9982 2.5148H11.6752C11.8353 2.5148 11.9646 2.64407 11.9646 2.80426C11.9646 2.96445 11.8353 3.09372 11.6752 3.09372H10.9982C10.8352 3.09372 10.7088 2.96445 10.7088 2.80426C10.7088 2.64407 10.838 2.5148 10.9982 2.5148ZM9.63287 1.35133H10.3127C10.4728 1.35133 10.6021 1.4778 10.6021 1.64079C10.6021 1.80098 10.4728 1.93025 10.3127 1.93025H9.63287C9.47274 1.93025 9.34352 1.80098 9.34352 1.64079C9.34352 1.48061 9.47274 1.35133 9.63287 1.35133ZM9.63287 3.67826H10.3127C10.4728 3.67826 10.6021 3.80754 10.6021 3.96772C10.6021 4.13072 10.4728 4.25718 10.3127 4.25718H9.63287C9.47274 4.25718 9.34352 4.13072 9.34352 3.96772C9.34352 3.81035 9.47274 3.67826 9.63287 3.67826ZM8.27038 2.5148H8.94741C9.11035 2.5148 9.23676 2.64407 9.23676 2.80426C9.23676 2.96445 9.11035 3.09372 8.94741 3.09372H8.27038C8.11025 3.09372 7.98102 2.96445 7.98102 2.80426C7.98102 2.64407 8.11025 2.5148 8.27038 2.5148ZM6.86575 1.35133H7.54278C7.70572 1.35133 7.83213 1.4778 7.83213 1.64079C7.83213 1.80098 7.70572 1.93025 7.54278 1.93025H6.86575C6.70562 1.93025 6.57639 1.80098 6.57639 1.64079C6.57639 1.48061 6.70843 1.35133 6.86575 1.35133ZM6.86575 3.67826H7.54278C7.70572 3.67826 7.83213 3.80754 7.83213 3.96772C7.83213 4.13072 7.70572 4.25718 7.54278 4.25718H6.86575C6.70562 4.25718 6.57639 4.13072 6.57639 3.96772C6.57639 3.81035 6.70843 3.67826 6.86575 3.67826ZM5.54259 2.5148H6.22243C6.38255 2.5148 6.51178 2.64407 6.51178 2.80426C6.51178 2.96445 6.38255 3.09372 6.22243 3.09372H5.54259C5.38246 3.09372 5.25323 2.96445 5.25323 2.80426C5.25323 2.64407 5.38246 2.5148 5.54259 2.5148ZM18.7883 6.37053C18.6787 6.21596 18.5214 6.09793 18.3416 6.02767C18.2376 5.99114 18.1309 5.96585 18.0129 5.96585H1.93268C1.41016 5.96866 0.983154 6.39301 0.983154 6.91573C0.983154 7.43845 1.41016 7.86561 1.93268 7.86561H18.0157C18.5382 7.86561 18.9652 7.43845 18.9652 6.91573C18.9624 6.71339 18.8978 6.5251 18.7883 6.37053Z" fill="white"/>
</svg>
