<svg width="14" height="14" viewBox="0 0 14 14" fill="none" xmlns="http://www.w3.org/2000/svg">
<path d="M13.733 4.94554L12.4307 4.27084C12.1898 4.1494 11.8902 4.24386 11.773 4.49349C11.6493 4.74988 11.747 5.05349 11.9879 5.17494L13.0233 5.70795V8.93976L10.5814 8.94651V2.0241C10.5814 0.674699 9.70883 0 8.62791 0H3.4186C2.33768 0 1.46512 0.674699 1.46512 2.0241V12.988H0.488372C0.221396 12.988 0 13.2173 0 13.494C0 13.7706 0.221396 14 0.488372 14H11.5581C11.8251 14 12.0465 13.7706 12.0465 13.494C12.0465 13.2173 11.8251 12.988 11.5581 12.988H10.5814V9.95855L13.5116 9.95181C13.7851 9.95181 14 9.72241 14 9.44578V5.39759C13.9995 5.30419 13.9743 5.21272 13.9272 5.13306C13.8802 5.05339 13.813 4.98855 13.733 4.94554ZM3.09302 3.29928C3.09302 2.36145 3.64651 2.0241 4.32372 2.0241H7.7293C8.4 2.0241 8.95349 2.36145 8.95349 3.29928V4.12916C8.95349 5.06024 8.4 5.39759 7.72279 5.39759H4.32372C3.64651 5.39759 3.09302 5.06024 3.09302 4.12241V3.29928ZM3.4186 6.91566H5.37209C5.63907 6.91566 5.86047 7.14506 5.86047 7.42169C5.86047 7.69831 5.63907 7.92771 5.37209 7.92771H3.4186C3.15163 7.92771 2.93023 7.69831 2.93023 7.42169C2.93023 7.14506 3.15163 6.91566 3.4186 6.91566Z" fill="#FD1717"/>
</svg>
