<svg width="15" height="14" viewBox="0 0 15 14" fill="none" xmlns="http://www.w3.org/2000/svg">
<path d="M10.83 0C9.4725 0 8.2575 0.692135 7.5 1.75393C7.1131 1.2103 6.61069 0.768734 6.03265 0.464276C5.45461 0.159819 4.81685 0.000853806 4.17 0C1.8675 0 0 1.96629 0 4.39663C0 5.33258 0.1425 6.19775 0.39 7C1.575 10.9326 5.2275 13.2843 7.035 13.9292C7.29 14.0236 7.71 14.0236 7.965 13.9292C9.7725 13.2843 13.425 10.9326 14.61 7C14.8575 6.19775 15 5.33258 15 4.39663C15 1.96629 13.1325 0 10.83 0Z" fill="white"/>
</svg>
