<svg width="15" height="21" viewBox="0 0 15 21" fill="none" xmlns="http://www.w3.org/2000/svg">
<path d="M7.03001 14.3156C9.24546 14.3156 11.0472 12.4802 11.0472 10.2255V4.09019C11.0472 1.83445 9.24546 0 7.03001 0C4.81455 0 3.01286 1.83445 3.01286 4.09019V10.2255C3.01286 12.4802 4.81455 14.3156 7.03001 14.3156ZM14.06 10.2255V8.18037C14.06 7.90917 13.9542 7.64909 13.7659 7.45732C13.5775 7.26556 13.3221 7.15782 13.0557 7.15782C12.7894 7.15782 12.5339 7.26556 12.3456 7.45732C12.1572 7.64909 12.0514 7.90917 12.0514 8.18037V10.2255C12.0514 13.0446 9.79882 15.3382 7.03001 15.3382C4.26119 15.3382 2.00857 13.0446 2.00857 10.2255V8.18037C2.00857 7.90917 1.90276 7.64909 1.71442 7.45732C1.52608 7.26556 1.27064 7.15782 1.00429 7.15782C0.737933 7.15782 0.482489 7.26556 0.294149 7.45732C0.105809 7.64909 0 7.90917 0 8.18037V10.2255C0 13.8248 2.6242 16.8025 6.02572 17.3015V18.4058H3.01286C2.74651 18.4058 2.49106 18.5136 2.30272 18.7053C2.11438 18.8971 2.00857 19.1572 2.00857 19.4284C2.00857 19.6996 2.11438 19.9597 2.30272 20.1514C2.49106 20.3432 2.74651 20.4509 3.01286 20.4509H11.0472C11.3135 20.4509 11.569 20.3432 11.7573 20.1514C11.9456 19.9597 12.0514 19.6996 12.0514 19.4284C12.0514 19.1572 11.9456 18.8971 11.7573 18.7053C11.569 18.5136 11.3135 18.4058 11.0472 18.4058H8.03429V17.3015C11.4358 16.8025 14.06 13.8248 14.06 10.2255Z" fill="white"/>
</svg>
