<svg width="42" height="19" viewBox="0 0 42 19" fill="none" xmlns="http://www.w3.org/2000/svg">
<path fill-rule="evenodd" clip-rule="evenodd" d="M35.1353 9.29923V11.0385H28.8889V13.2796H35.2005V18.9667H25.766V17.3273H31.8496V14.9526H25.766V9.29923H35.1353ZM37.1198 9.39956L41.1864 5.45245L37.1198 1.5051V3.84679H7.87298V10.9382L4.48966 3.84679H0V19H4.22932V11.808L7.64523 19H12.1023V7.12491H37.1198V9.39956ZM20.333 17.3271H17.2424V11.0385H20.3332L20.333 17.3271ZM23.554 18.9665H14.0544V9.29923H23.554V18.9665ZM42 1.4383C42 1.70598 41.9674 1.93992 41.837 2.17409C41.7071 2.40826 41.5115 2.57538 41.3165 2.70923C41.089 2.84307 40.8611 2.90988 40.6009 2.90988C40.3404 2.90988 40.1129 2.84307 39.8849 2.70923C39.69 2.57538 39.4948 2.40826 39.3968 2.17409C39.2669 1.93992 39.2019 1.70575 39.2019 1.4383C39.2019 1.20413 39.2669 0.93644 39.3968 0.735791C39.4948 0.501622 39.6897 0.334493 39.8849 0.200649C40.1129 0.0668046 40.3404 0 40.6009 0C40.8611 0 41.089 0.0668046 41.3165 0.200649C41.5115 0.334493 41.7071 0.501622 41.837 0.735791C41.9674 0.936674 42 1.20413 42 1.4383ZM41.7394 1.4383C41.7394 1.13709 41.6419 0.836115 41.4139 0.635466C41.1864 0.401298 40.9263 0.267453 40.6009 0.267453C40.2756 0.267453 40.0151 0.401298 39.7875 0.635466C39.5926 0.836115 39.462 1.13732 39.462 1.4383C39.462 1.77279 39.5924 2.04024 39.7875 2.27441C40.0151 2.50858 40.2756 2.6089 40.6009 2.6089C40.9263 2.6089 41.1864 2.50858 41.4139 2.27441C41.6419 2.04048 41.7394 1.77279 41.7394 1.4383ZM39.9825 0.668985V2.20761H40.3404V1.60566H40.373C40.4379 1.60566 40.471 1.63918 40.536 1.70598C40.6009 1.7395 40.6985 1.94015 40.8285 2.20761H41.2513C41.1214 1.93992 41.0238 1.77279 41.0238 1.77279C40.9912 1.70598 40.9584 1.63895 40.8934 1.60566C40.8608 1.60566 40.8285 1.57214 40.7635 1.53886C40.9265 1.50534 41.0241 1.43853 41.089 1.37149C41.154 1.30469 41.1866 1.20436 41.1866 1.1038C41.1866 0.969959 41.154 0.869635 41.0567 0.80283C40.9586 0.702505 40.8287 0.668985 40.6338 0.668985H39.9825ZM40.3404 1.33797H40.5034C40.6009 1.33797 40.6983 1.30445 40.7309 1.27093C40.7635 1.23741 40.7959 1.20413 40.7959 1.13709C40.7959 1.07028 40.7633 1.03676 40.7309 1.00324C40.6983 0.969725 40.6333 0.93644 40.5034 0.93644H40.3404V1.33797Z" fill="#4385d0"/>
</svg>
