<svg width="17" height="19" viewBox="0 0 17 19" fill="none" xmlns="http://www.w3.org/2000/svg">
<path d="M11.2428 0C8.58467 0 6.42774 2.15694 6.42774 4.81507C6.42774 7.47321 8.58467 9.63015 11.2428 9.63015C13.9009 9.63015 16.0579 7.47321 16.0579 4.81507C16.0579 2.15694 13.9009 0 11.2428 0ZM2.98201 10.0964C2.19133 10.0962 1.43295 10.4101 0.873696 10.969C0.31444 11.5279 0.000119246 12.2861 -0.000118121 13.0768C-0.000355489 13.8674 0.31351 14.6258 0.872431 15.1851C1.43135 15.7443 2.18954 16.0587 2.98022 16.0589C3.77089 16.059 4.52922 15.745 5.08839 15.186C5.64757 14.627 5.96177 13.8688 5.96189 13.0781C5.96201 12.2874 5.64803 11.5291 5.08903 10.9699C4.53002 10.4108 3.77268 10.0966 2.98201 10.0964ZM12.1647 13.3095C10.7774 13.3095 9.64972 14.4372 9.64972 15.8244C9.64972 17.2116 10.7774 18.3393 12.1647 18.3393C13.5519 18.3393 14.6796 17.2116 14.6796 15.8244C14.6796 14.4372 13.5519 13.3095 12.1647 13.3095Z" fill="#EBEBEB"/>
</svg>
