<svg width="15" height="21" viewBox="0 0 15 21" fill="none" xmlns="http://www.w3.org/2000/svg">
<path d="M4.37386 0.984375C4.37386 0.438867 3.956 0 3.43661 0C2.91721 0 2.49935 0.438867 2.49935 0.984375V3.9375H1.87451C0.839625 3.9375 0 4.81934 0 5.90625V12.3088C0 12.8297 0.199167 13.3301 0.550638 13.6992L0.702942 13.8592C1.05441 14.2283 1.25358 14.7287 1.25358 15.2496V19.0312C1.25358 20.1182 2.0932 21 3.12809 21H11.8719C12.9068 21 13.7464 20.1182 13.7464 19.0312V15.2537C13.7464 14.7328 13.9456 14.2324 14.2971 13.8633L14.4494 13.7033C14.8008 13.3342 15 12.8338 15 12.3129V5.90625C15 4.81934 14.1604 3.9375 13.1255 3.9375H12.4967C12.4967 3.21152 11.9383 2.625 11.2471 2.625C10.5558 2.625 9.9974 3.21152 9.9974 3.9375H8.74772C8.74772 3.21152 8.18927 2.625 7.49805 2.625C6.80682 2.625 6.24837 3.21152 6.24837 3.9375H4.37386V0.984375ZM4.37386 6.5625H10.6222C10.9659 6.5625 11.2471 6.85781 11.2471 7.21875C11.2471 7.57969 10.9659 7.875 10.6222 7.875H4.37386C4.0302 7.875 3.74902 7.57969 3.74902 7.21875C3.74902 6.85781 4.0302 6.5625 4.37386 6.5625ZM4.37386 9.1875H10.6222C10.9659 9.1875 11.2471 9.48281 11.2471 9.84375C11.2471 10.2047 10.9659 10.5 10.6222 10.5H4.37386C4.0302 10.5 3.74902 10.2047 3.74902 9.84375C3.74902 9.48281 4.0302 9.1875 4.37386 9.1875ZM4.37386 11.8125H10.6222C10.9659 11.8125 11.2471 12.1078 11.2471 12.4688C11.2471 12.8297 10.9659 13.125 10.6222 13.125H4.37386C4.0302 13.125 3.74902 12.8297 3.74902 12.4688C3.74902 12.1078 4.0302 11.8125 4.37386 11.8125Z" fill="white"/>
</svg>
