<svg width="14" height="14" viewBox="0 0 19 19" fill="none" xmlns="http://www.w3.org/2000/svg">
<path d="M6.82812 0C7.9748 0 8.90625 0.931445 8.90625 2.07812V16.9219C8.90625 18.0686 7.9748 19 6.82812 19C5.75566 19 4.87246 18.1873 4.76113 17.1408C4.56816 17.1928 4.36406 17.2188 4.15625 17.2188C2.84629 17.2188 1.78125 16.1537 1.78125 14.8438C1.78125 14.5691 1.82949 14.302 1.91484 14.057C0.794141 13.634 0 12.5504 0 11.2812C0 10.0975 0.693945 9.07324 1.69961 8.59824C1.37676 8.19375 1.1875 7.68164 1.1875 7.125C1.1875 5.98574 1.98906 5.03574 3.05781 4.80195C2.99844 4.59785 2.96875 4.37891 2.96875 4.15625C2.96875 3.04668 3.7332 2.11152 4.76113 1.85176C4.87246 0.812695 5.75566 0 6.82812 0ZM12.1719 0C13.2443 0 14.1238 0.812695 14.2389 1.85176C15.2705 2.11152 16.0312 3.04297 16.0312 4.15625C16.0312 4.37891 16.0016 4.59785 15.9422 4.80195C17.0109 5.03203 17.8125 5.98574 17.8125 7.125C17.8125 7.68164 17.6232 8.19375 17.3004 8.59824C18.3061 9.07324 19 10.0975 19 11.2812C19 12.5504 18.2059 13.634 17.0852 14.057C17.1705 14.302 17.2188 14.5691 17.2188 14.8438C17.2188 16.1537 16.1537 17.2188 14.8438 17.2188C14.6359 17.2188 14.4318 17.1928 14.2389 17.1408C14.1275 18.1873 13.2443 19 12.1719 19C11.0252 19 10.0938 18.0686 10.0938 16.9219V2.07812C10.0938 0.931445 11.0252 0 12.1719 0Z" fill="white"/>
</svg>
