<svg width="10" height="20" viewBox="0 0 10 20" fill="none" xmlns="http://www.w3.org/2000/svg">
<path d="M3.49995 0H6.49995C6.9987 0 7.39995 0.417969 7.39995 0.9375V2.5H2.59995V0.9375C2.59995 0.417969 3.0012 0 3.49995 0ZM0.199951 5.92578C0.199951 5.31641 0.537451 4.76172 1.06995 4.5L1.98495 4.05469C2.39745 3.85547 2.84745 3.75 3.3012 3.75H6.6987C7.15245 3.75 7.60245 3.85547 8.01495 4.05469L8.92995 4.5C9.4587 4.75781 9.79995 5.3125 9.79995 5.92578C9.79995 6.48828 9.5187 6.98047 9.0912 7.25781C9.52245 7.60156 9.79995 8.14062 9.79995 8.75C9.79995 9.40234 9.4812 9.97656 8.9937 10.3125C9.47745 10.6484 9.79995 11.2227 9.79995 11.875C9.79995 12.5273 9.4812 13.1016 8.9937 13.4375C9.47745 13.7734 9.79995 14.3477 9.79995 15C9.79995 15.6523 9.4812 16.2266 8.9937 16.5625C9.47745 16.8984 9.79995 17.4727 9.79995 18.125C9.79995 19.1602 8.9937 20 7.99995 20H1.99995C1.0062 20 0.199951 19.1602 0.199951 18.125C0.199951 17.4727 0.518701 16.8984 1.0062 16.5625C0.518701 16.2266 0.199951 15.6523 0.199951 15C0.199951 14.3477 0.518701 13.7734 1.0062 13.4375C0.518701 13.1016 0.199951 12.5273 0.199951 11.875C0.199951 11.2227 0.518701 10.6484 1.0062 10.3125C0.518701 9.97656 0.199951 9.40234 0.199951 8.75C0.199951 8.14062 0.477451 7.60156 0.908701 7.25781C0.481201 6.98047 0.199951 6.48828 0.199951 5.92578ZM2.59995 9.375C2.59995 9.71875 2.86995 10 3.19995 10H6.79995C7.12995 10 7.39995 9.71875 7.39995 9.375C7.39995 9.03125 7.12995 8.75 6.79995 8.75H3.19995C2.86995 8.75 2.59995 9.03125 2.59995 9.375ZM3.19995 13.75C2.86995 13.75 2.59995 14.0312 2.59995 14.375C2.59995 14.7188 2.86995 15 3.19995 15H6.79995C7.12995 15 7.39995 14.7188 7.39995 14.375C7.39995 14.0312 7.12995 13.75 6.79995 13.75H3.19995Z" fill="white"/>
</svg>
