<svg width="0" height="0" style="position:absolute;">
    <clipPath id="clipPath">
        <path d="M119.521 11.8675C119.521 5.70593 114.529 0.713196 108.367 0.713196H24.5223C18.3607 0.713196 13.368 5.70593 13.368 11.8675V147.804H0.662476V167.566H132.227V147.804H119.521V11.8675ZM106.679 53.7934H74.6516C74.666 53.577 74.6877 53.3606 74.6877 53.1369L85.6039 35.8211L70.2649 44.7531C68.6343 43.6348 66.6575 42.9783 64.5218 42.9783C58.9086 42.9783 54.356 47.5309 54.356 53.1441C54.356 53.3678 54.3776 53.5842 54.3921 53.8007H27.3505V28.8154C27.3505 21.7231 33.1008 15.9728 40.1931 15.9728H91.4335C99.8534 15.9728 106.679 22.7981 106.679 31.2179V53.8007V53.7934Z" />
    </clipPath>
</svg>