<svg width="72" height="66" viewBox="0 0 72 66" fill="none" xmlns="http://www.w3.org/2000/svg">
<path d="M60.6503 13.8666C62.0483 14.8122 63.7365 15.231 65.4144 15.0486C67.0887 14.8697 68.6466 14.1067 69.8144 12.8935C70.9822 11.6804 71.6854 10.0946 71.8004 8.41468C71.9155 6.73472 71.435 5.06791 70.4435 3.70688C69.452 2.34585 68.0127 1.37759 66.3784 0.972072C64.744 0.566558 63.0191 0.749712 61.5063 1.48938C59.9936 2.22905 58.7897 3.47796 58.1061 5.01685C57.4225 6.55574 57.3028 8.28627 57.7681 9.90462C58.2333 11.523 59.2538 12.9257 60.6503 13.8666ZM43.1631 58.0755C43.1631 59.9755 43.9178 61.7977 45.2613 63.1412C46.6048 64.4847 48.427 65.2394 50.327 65.2394C52.227 65.2394 54.0492 64.4847 55.3927 63.1412C56.7362 61.7977 57.491 59.9755 57.491 58.0755C57.491 56.1755 56.7362 54.3533 55.3927 53.0098C54.0492 51.6663 52.227 50.9115 50.327 50.9115C48.427 50.9115 46.6048 51.6663 45.2613 53.0098C43.9178 54.3533 43.1631 56.1755 43.1631 58.0755ZM7.34318 65.2394C5.44317 65.2394 3.62099 64.4847 2.27748 63.1412C0.933973 61.7977 0.179199 59.9755 0.179199 58.0755C0.179199 56.1755 0.933973 54.3533 2.27748 53.0098C3.62099 51.6663 5.44317 50.9115 7.34318 50.9115C9.24318 50.9115 11.0654 51.6663 12.4089 53.0098C13.7524 54.3533 14.5072 56.1755 14.5072 58.0755C14.5072 59.9755 13.7524 61.7977 12.4089 63.1412C11.0654 64.4847 9.24318 65.2394 7.34318 65.2394ZM17.6665 13.8666C19.0645 14.8122 20.7526 15.231 22.4305 15.0486C23.5324 14.9301 24.5918 14.5577 25.5255 13.9608C26.4593 13.3639 27.242 12.5588 27.8122 11.6085C28.3824 10.6583 28.7246 9.58876 28.812 8.48399C28.8994 7.37922 28.7295 6.26923 28.3157 5.24115C27.8956 4.2033 27.2381 3.27836 26.3959 2.54056C25.5537 1.80275 24.5503 1.27262 23.4662 0.992686C22.3821 0.712757 21.2475 0.690827 20.1534 0.928656C19.0593 1.16649 18.0362 1.65745 17.1661 2.36216C16.2961 3.06688 15.6033 3.96571 15.1434 4.98655C14.6835 6.0074 14.4693 7.12183 14.5179 8.24042C14.5666 9.35902 14.8767 10.4506 15.4235 11.4277C15.9703 12.4048 16.7385 13.2401 17.6665 13.8666ZM16.2301 17.1978L7.61899 47.3295C9.43829 47.3737 11.2162 47.8817 12.7842 48.8053L21.3953 18.6664C19.576 18.6222 17.7981 18.1143 16.2301 17.1907V17.1978ZM54.2493 10.6141H32.0768C32.531 8.85193 32.531 7.00335 32.0768 5.24115H54.2493C53.7951 7.00335 53.7951 8.85193 54.2493 10.6141ZM39.9214 60.762C39.4672 58.9998 39.4672 57.1512 39.9214 55.389H17.7489C18.203 57.1512 18.203 58.9998 17.7489 60.762H39.9214ZM50.6028 47.3331L59.214 17.1942C60.7363 18.0897 62.4986 18.6235 64.3792 18.67L55.7681 48.8089C54.2004 47.884 52.4225 47.3748 50.6028 47.3295V47.3331Z" fill="#F8F8F8"/>
</svg>
