<svg width="21" height="16" viewBox="0 0 21 16" fill="none" xmlns="http://www.w3.org/2000/svg">
<path id="Vector" d="M6.94975 0C7.20568 0 7.41896 0.178125 7.49771 0.4125C7.9013 1.62188 9.09237 2.5 10.5 2.5C11.9076 2.5 13.0987 1.62188 13.5023 0.4125C13.581 0.178125 13.7943 0 14.0503 0H14.4637C15.2019 0 15.914 0.246875 16.4816 0.696875L20.6225 3.98125C20.839 4.15313 20.9736 4.40312 20.9965 4.67188C21.0195 4.94063 20.9276 5.20625 20.7406 5.40938L18.9031 7.40938C18.5291 7.81875 17.8794 7.86563 17.4397 7.51875L15.7499 6.17812V14C15.7499 15.1031 14.8082 16 13.6499 16H7.35006C6.19179 16 5.25009 15.1031 5.25009 14V6.17812L3.56028 7.51875C3.12388 7.86563 2.4742 7.81875 2.09687 7.40938L0.259398 5.40938C0.0723702 5.20625 -0.0195032 4.94063 0.0034652 4.67188C0.0264335 4.40312 0.160962 4.15313 0.377521 3.98125L4.51839 0.696875C5.08603 0.246875 5.79805 0 6.53632 0H6.94975Z" fill="#3686b7"/>
</svg>
