<svg xmlns="http://www.w3.org/2000/svg" xmlns:xlink="http://www.w3.org/1999/xlink" version="1.1" x="0px" y="0px" viewBox="0 0 100 125" enable-background="new 0 0 100 100" xml:space="preserve"><path d="M87.5,29.5h-35c-1.71,0-4.032,0.774-5.4,1.8l-36,27c-1.482,1.112-2.6,3.348-2.6,5.2V91c0,2.206,1.794,4,4,4h75  c2.206,0,4-1.794,4-4V33.5C91.5,31.294,89.706,29.5,87.5,29.5z M82.5,70H70c-0.828,0-1.5-0.672-1.5-1.5S69.172,67,70,67h12.5  c0.828,0,1.5,0.672,1.5,1.5S83.328,70,82.5,70z M85,58.5c0,1.375-1.125,2.5-2.5,2.5h-60c-1.375,0-1.608-0.686-0.519-1.524  l28.537-21.951C51.608,36.686,53.625,36,55,36h12.5c1.375,0,3.625,0,5,0h10c1.375,0,2.5,1.125,2.5,2.5V58.5z" fill="#3686b7"/></svg>