<svg width="40px" height="40px" viewBox="0 -10.77 37.171 37.171" xmlns="http://www.w3.org/2000/svg">
  <path id="Hat" d="M616.7,302.3s-2.7-2.6-9.6-2.1l1.6,4h-.9c-.8-2.4-2.4-6.3-3.7-7.6a3.433,3.433,0,0,0-3.1-1.5,7.441,7.441,0,0,1-2.5-.5c-7.9-1.4-8,5.7-8,5.7l-.2,7.7a2.767,2.767,0,0,1-.8-.1l.1-4.6-1.9.1s-9.7,1.3-6.5,4.5c0,0,4.5,3.6,12.8,1.5,0,0,1.2-.4,3-.9.4-.1.6-.2.7-.2a15.427,15.427,0,0,0,1.7-.5c4-1,8.8-1.8,8.9-1.8a29.336,29.336,0,0,1,4.1-.3C612.5,305.7,620.5,305.9,616.7,302.3Z" transform="translate(-580.552 -294.417)" fill="#3686b7" />
</svg>
