<?xml version="1.0" encoding="UTF-8" standalone="no"?> <svg xmlns="http://www.w3.org/2000/svg" width="40px" height="40px" viewBox="0 0 1624.19 1706.34">
  <g id="Layer_x0020_1" transform="translate(-354.56 -313.5)">
    <path id="Path_37" data-name="Path 37" d="M1523.4,1004.67Zm-385.18,357.05V742.71L981.19,673.8c-17.44,19.14-31.9,50.77-43.56,85.52-12.1,36.06-20.86,74.99-26.93,107.96a86.18,86.18,0,1,1-56.12-8.21c6.48-35.56,15.98-78.07,29.29-117.73,11.39-33.92,25.76-66.02,43.82-91.01L666.65,535.79l-312.09,589.5c9.26,49.07,86.17,536.47,111.93,537.48q1.275-.12,2.58-.12H615.11V802.36a28.44,28.44,0,0,1,56.88,0V1831.72a56.131,56.131,0,0,0,55.92,55.92h877.5a56.131,56.131,0,0,0,55.92-55.92V802.36a28.44,28.44,0,1,1,56.88,0v860.28c50.56-.02,148.24-.06,148.21.13,20.74,1.18,103.15-488.78,112.33-537.48l-312.09-589.5L1405.62,650.33c18.06,24.98,32.44,57.09,43.82,91,13.31,39.66,22.8,82.17,29.29,117.74a86.2,86.2,0,0,1,44.65,145.6c-.66.65-1.33,1.27-2.03,1.84a86.16,86.16,0,1,1-98.76-139.24c-6.07-32.96-14.82-71.89-26.92-107.95-11.67-34.75-26.12-66.38-43.56-85.52l-157.04,68.91v619h196.47a28.442,28.442,0,0,1,28.44,28.44,129.057,129.057,0,0,0,129.06,129.06,28.449,28.449,0,0,1,28.44,28.44v264.37a28.442,28.442,0,0,1-28.44,28.44H758.729a28.449,28.449,0,0,1-28.44-28.44V1547.65a28.449,28.449,0,0,1,28.44-28.44,129.057,129.057,0,0,0,129.06-129.06,28.443,28.443,0,0,1,28.44-28.44h221.96Z" fill="#3686b7"/>
    <path id="Path_38" data-name="Path 38" d="M1166.66,1418.6H942.54A186.079,186.079,0,0,1,787.2,1573.94v209.65h733.43V1573.94a186.08,186.08,0,0,1-155.34-155.34H1166.65Z" fill="#3686b7"/>
    <path id="Path_39" data-name="Path 39" d="M1567.09,1924.54H766.22v95.3h800.87Z" fill="#3686b7"/>
    <path id="Path_40" data-name="Path 40" d="M683.38,481.2,1080.8,655.59,834.33,321.29a53.637,53.637,0,0,0-24.54-6.07c-15.65,0-31.7,6.93-46.84,18.44-17,12.93-32.73,31.48-45.8,52.87-17.85,29.23-30.23,63.06-33.78,94.66Z" fill="#3686b7"/>
    <path id="Path_41" data-name="Path 41" d="M948.54,380.58l218.07,295.78,212.74-289.6c-62.57,26.53-127.43,41.13-194.86,42.39-75.78,1.41-154.33-14.1-235.95-48.57Z" fill="#3686b7"/>
    <path id="Path_42" data-name="Path 42" d="M1498.34,320.64l-246.16,335.1L1648.83,481.7c-4-35.86-19.61-75.07-41.61-107.2-12.72-18.57-27.38-34.45-42.89-45.47-13.71-9.75-27.81-15.53-41.21-15.53v.11a48.555,48.555,0,0,0-24.78,7.04Z" fill="#3686b7"/>
    <path id="Path_43" data-name="Path 43" d="M1509.12,943.72a46.675,46.675,0,1,1-.01,0Z" fill="#3686b7"/>
    <path id="Path_44" data-name="Path 44" d="M917.09,943.72a46.211,46.211,0,1,0-13.53,32.68A46.137,46.137,0,0,0,917.09,943.72Z" fill="#3686b7"/>
  </g>
</svg>
