<?xml version="1.0" encoding="UTF-8"?>
<!DOCTYPE svg PUBLIC "-//W3C//DTD SVG 1.1//EN" "http://www.w3.org/Graphics/SVG/1.1/DTD/svg11.dtd">
<!-- Creator: CorelDRAW -->
<svg fill="#3686b7" xmlns="http://www.w3.org/2000/svg" xml:space="preserve" width="40" height="40" version="1.1" style="shape-rendering:geometricPrecision; text-rendering:geometricPrecision; image-rendering:optimizeQuality; fill-rule:evenodd; clip-rule:evenodd"
viewBox="0 0 18062 18062"
 xmlns:xlink="http://www.w3.org/1999/xlink">
 <defs>
  <style type="text/css">
   <![CDATA[
    .fil0 {fill:#3686b7}
   ]]>
  </style>
 </defs>
 <g id="Layer_x0020_1">
  <metadata id="CorelCorpID_0Corel-Layer"/>
  <path class="fil0" d="M3017 15248c-250,0 -485,-29 -720,-88 -853,-191 -2294,-970 -2294,-3926 0,-1676 1353,-3029 3029,-3029l1338 0c1294,0 2750,765 3382,1794 382,617 426,1250 132,1838 -1014,2014 -3073,3411 -4867,3411zm2603 -2426c-74,0 -147,-44 -191,-118l-1485 -2573c-59,-103 -30,-235 88,-294 103,-59 235,-29 294,88l1485 2574c59,103 29,235 -88,294 -30,14 -74,29 -103,29zm-1206 823c-73,0 -147,-44 -191,-117l-1956 -3397c-59,-103 -29,-235 89,-294 102,-59 235,-29 294,88l1955 3397c59,103 30,235 -88,294 -29,15 -59,29 -103,29z"/>
  <path class="fil0" d="M15060 15248c-1794,0 -3853,-1397 -4867,-3426 -294,-588 -250,-1220 117,-1823 618,-1000 2103,-1794 3382,-1794l1338 0c1677,0 3029,1367 3029,3029 0,2941 -1441,3720 -2293,3926 -221,59 -456,88 -706,88zm-2603 -2426c-44,0 -73,-15 -103,-29 -103,-59 -147,-192 -88,-294l1485 -2574c59,-103 191,-147 294,-88 103,59 147,191 88,294l-1485 2573c-29,74 -117,118 -191,118zm1191 823c-44,0 -73,-14 -117,-29 -103,-59 -148,-191 -74,-294l1970 -3397c59,-103 192,-147 294,-73 103,59 147,191 74,294l-1956 3382c-44,73 -117,117 -191,117z"/>
  <path class="fil0" d="M10296 10778c-44,0 -89,-14 -133,-44 -338,-250 -720,-382 -1132,-382 -412,0 -794,132 -1117,382 -89,74 -236,59 -309,-29 -74,-103 -59,-236 44,-309 397,-309 882,-485 1382,-485 500,0 985,161 1397,485 103,73 118,206 44,309 -44,44 -118,73 -176,73z"/>
  <path class="fil0" d="M11413 9411c-15,0 -44,0 -59,-15 -735,-206 -1514,-294 -2323,-294 -794,0 -1573,103 -2308,294 -118,29 -236,-44 -265,-162 -30,-117 44,-235 162,-264 779,-206 1588,-309 2426,-309 838,0 1661,103 2441,309 117,29 191,147 161,264 -44,103 -132,177 -235,177z"/>
  <path class="fil0" d="M694 9911c-29,0 -59,0 -103,-30 -103,-59 -147,-191 -103,-294l2720 -5499c368,-735 927,-1191 1544,-1265 397,-44 985,44 1574,765 73,88 58,235 -30,309 -88,73 -235,59 -309,-30 -367,-441 -779,-647 -1176,-602 -470,58 -897,426 -1206,1029l-2720 5499c-29,74 -118,118 -191,118z"/>
  <path class="fil0" d="M17383 9911c-88,0 -162,-44 -191,-118l-2720 -5499c-295,-603 -736,-971 -1206,-1030 -412,-44 -824,162 -1176,603 -74,89 -221,103 -309,30 -88,-74 -103,-221 -30,-309 456,-559 1015,-823 1574,-765 617,74 1191,530 1558,1265l2721 5499c58,103 14,235 -103,294 -45,30 -89,30 -118,30z"/>
 </g>
</svg>
