<?xml version="1.0" encoding="UTF-8"?>
<!DOCTYPE svg PUBLIC "-//W3C//DTD SVG 1.1//EN" "http://www.w3.org/Graphics/SVG/1.1/DTD/svg11.dtd">
<!-- Creator: CorelDRAW -->
<svg xmlns="http://www.w3.org/2000/svg" xml:space="preserve" width="40px" height="40px" version="1.1" style="shape-rendering:geometricPrecision; text-rendering:geometricPrecision; image-rendering:optimizeQuality; fill-rule:evenodd; clip-rule:evenodd"
viewBox="0 0 1706.66 1706.66"
 xmlns:xlink="http://www.w3.org/1999/xlink"
 xmlns:xodm="http://www.corel.com/coreldraw/odm/2003">
 <defs>
  <style type="text/css">
   <![CDATA[
    .fil0 {fill:#3686b7}
   ]]>
  </style>
 </defs>
 <g id="Layer_x0020_1">
  <metadata id="CorelCorpID_0Corel-Layer"/>
  <path class="fil0" d="M1401.61 1706.64l-392.07 0c-9.69,0 -18,-6.97 -19.69,-16.52l-24.52 -138.41 456.29 0 0 134.93c0,11.04 -8.96,20 -20,20zm-443.37 -194.93l-104.63 -590.58 -105.06 590.58 -463.49 0 0 -872.73c62.73,-33.37 200.44,-114.63 219.7,-125.61 5.85,-3.33 9.64,-9.38 10.07,-16.08 1.83,-28.47 17.93,-247.47 15.34,-256.3l242.48 0c-2.65,8.08 -1,361.44 -1,401.77 0,25.14 30.35,20 51.11,20 61.89,0 112.25,-50.35 112.23,-112.25 -0,-32.37 1.58,-301.65 -1,-309.52l242.51 0c-2.48,8.58 13.5,228.13 15.35,256.3 0.44,6.7 4.21,12.75 10.06,16.08 17.86,10.17 147.15,86.31 219.68,126.14l0.01 872.2 -463.37 0zm-216.8 40l-24.63 138.43c-1.7,9.56 -10,16.5 -19.69,16.5l-392.06 0c-11.04,0 -20,-8.97 -20,-20l0 -134.93 456.38 0zm70.22 -928.96l11.11 0c39.83,0 72.23,-32.41 72.23,-72.25l0 -283.26 -83.35 0 0 355.52zm403.14 -381.77l102.24 -0.44c61.9,0 104.57,37.03 104.57,98.94l0 253.38 -190.54 -108.91 -16.28 -242.97zm-929.73 351.81l0 -253.31c0,-97.09 103.61,-104.51 131.38,-98.5l75.44 0 -16.28 242.97 -190.55 108.84z"/>
  <path class="fil0" d="M1139.7 207.66l0 -207.63 146.36 0c25.15,0 45.59,20.46 45.59,45.59l0 162.19 -41.17 -0.15 -150.79 0zm-285.21 -34.39c-96.04,0 -96.04,-145.94 0,-145.94 96.03,0 96.04,145.94 0,145.94zm0 -105.94c-43.42,0 -43.41,65.96 0,65.96 43.37,0 43.39,-65.96 0,-65.96zm-245.22 140.33l0 -207.63 490.43 0 0 207.63 -490.43 0zm-231.97 -0.25l0 -161.79c0,-25.15 20.46,-45.59 45.59,-45.59l146.37 0 0 207.63 -191.97 -0.25z"/>
 </g>
</svg>
