<?xml version="1.0" encoding="UTF-8" standalone="no"?> <svg width="30" height="30" viewBox="0 0 64 64" fill="#3686b7" xmlns="http://www.w3.org/2000/svg">
<path d="M57.62 35.59C62.1 33.23 62.14 30.79 57.62 28.41C56.79 27.93 55.42 27.12 55.31 26.68C55.49 24.68 59.31 21.51 58.13 19.41C57.22 17.16 52.41 18.14 50.69 17.09C50.39 16.72 50.62 15.09 50.76 14.14C51.69 9.25 49.88 7.71 45.26 9.73C42.06 10.91 42.26 11.01 41.18 7.8C39.9 3 37.62 2.31 34.33 6.16C33.61 6.93 32.51 8.09 32 8.09C30.13 7.5 27.86 3 25.55 3.72C23.14 4.11 23 9 21.63 10.45C19.63 10.69 15.71 7.69 13.92 9.33C11.92 10.72 13.92 15.2 13.31 17.09C11.6 18.14 6.78002 17.15 5.87002 19.41C4.67002 21.51 8.49002 24.72 8.69002 26.68C8.58002 27.12 7.21002 27.93 6.38002 28.41C1.90002 30.77 1.86002 33.21 6.38002 35.59C7.21002 36.07 8.58002 36.88 8.69002 37.32C8.51002 39.32 4.69002 42.49 5.87002 44.59C6.78002 46.84 11.59 45.86 13.31 46.91C13.96 48.8 11.92 53.28 13.92 54.67C15.72 56.3 19.63 53.32 21.62 53.55C23 55 23.14 59.9 25.55 60.28C27.95 60.93 30.08 56.52 32 55.91C33.88 56.5 36.14 60.97 38.45 60.28C40.86 59.89 40.99 55 42.37 53.55C44.37 53.31 48.28 56.31 50.08 54.67C52.08 53.28 50.08 48.8 50.69 46.91C50.99 46.54 52.61 46.4 53.57 46.32C58.57 46.15 59.68 44.05 56.67 39.99C54.79 37.14 54.73 37.31 57.62 35.59ZM36.83 17.59C42.45 17.73 42.45 28.99 36.83 29.13C31.21 29 31.21 17.76 36.83 17.62V17.59ZM27.17 17.59C32.79 17.73 32.79 28.99 27.17 29.13C21.55 29 21.55 17.76 27.17 17.62V17.59ZM15.69 30.77C14.24 24.43 21 22.14 22.8 29.19C24.2 36 17.22 37.4 15.69 30.77ZM43.41 43.18C43.0303 44.169 42.3463 45.0118 41.4567 45.587C40.567 46.1621 39.5177 46.4398 38.46 46.38C36.31 46.1 34.46 45.18 32 45.2C30.7696 45.2376 29.5508 45.4497 28.38 45.83C27.3871 46.1682 26.3486 46.3536 25.3 46.38C20.81 46.52 18.46 40.61 21.81 37.62L27.21 32.51C28.5077 31.2923 30.2205 30.6145 32 30.6145C33.7796 30.6145 35.4923 31.2923 36.79 32.51L42.19 37.62C42.9347 38.3127 43.4505 39.216 43.6685 40.2094C43.8864 41.2029 43.7963 42.2391 43.41 43.18V43.18ZM48.31 30.77C46.77 37.41 39.8 36 41.2 29.19C43 22.13 49.76 24.44 48.31 30.77V30.77Z" fill="#3686b7"/>
</svg>
