<?xml version="1.0" encoding="utf-8"?>
<!-- Generator: Adobe Illustrator 16.0.0, SVG Export Plug-In . SVG Version: 6.00 Build 0)  -->
<!DOCTYPE svg PUBLIC "-//W3C//DTD SVG 1.1//EN" "http://www.w3.org/Graphics/SVG/1.1/DTD/svg11.dtd">
<svg version="1.1" id="Livello_1" xmlns="http://www.w3.org/2000/svg" xmlns:xlink="http://www.w3.org/1999/xlink" x="0px" y="0px"
	 width="40" height="40" viewBox="0 0 100 100" enable-background="new 0 0 100 100" xml:space="preserve">
<rect fill="#3686b7" width="0" height="0"/>
<path d="M91.989,67.545L57.019,45.022v-6.303h-5.774c0.03-0.357,0.09-0.628,0.178-0.812c0.147-0.308,0.527-0.716,1.139-1.223
	c1.181-0.98,1.951-1.754,2.313-2.322c0.36-0.569,0.54-1.171,0.54-1.809c0-1.15-0.489-2.159-1.471-3.025
	c-0.981-0.866-2.303-1.3-3.963-1.3c-1.579,0-2.853,0.429-3.824,1.286s-1.494,1.899-1.57,3.126l2.644,0.336
	c0.186-0.857,0.526-1.496,1.023-1.915c0.496-0.418,1.112-0.628,1.849-0.628c0.765,0,1.372,0.199,1.823,0.599
	s0.677,0.878,0.677,1.438c0,0.404-0.128,0.774-0.382,1.11c-0.166,0.213-0.672,0.662-1.519,1.347
	c-0.847,0.685-1.412,1.302-1.694,1.849c-0.265,0.515-0.405,1.163-0.421,1.942h-5.604v6.303L7.973,67.568
	c-0.851,0.549-1.24,1.592-0.954,2.564c0.286,0.971,1.178,1.639,2.19,1.639h81.583l0,0c0.002,0,0.004,0,0.006,0l0,0
	c1.258-0.004,2.277-1.023,2.277-2.283C93.074,68.668,92.641,67.947,91.989,67.545z M16.97,67.205L45.239,49h9.522l28.27,18.206
	H16.97z" fill="#3686b7"/>
</svg>
