<?xml version="1.0" encoding="UTF-8" standalone="no"?> <svg xmlns="http://www.w3.org/2000/svg" viewBox="0 0 64 64"><g id="Layer_17" data-name="Layer 17"><path d="M50.54,27.75a30.25,30.25,0,0,1,8.55-5.84c-3.47-4.87-6.49-9.07-9-12.48a106.72,106.72,0,0,0-10.7-4.2c-.17,4.39-2.57,6.84-7.15,7.28h-.12c-4-.43-6.51-2.82-7.31-7.11A60.1,60.1,0,0,0,14.12,10,130,130,0,0,1,5,22.85a17.28,17.28,0,0,1,8.9,6,10,10,0,0,1,2.73-1.33,54.69,54.69,0,0,0-2.36-14.77.5.5,0,0,1,1-.28,55.56,55.56,0,0,1,2.41,15.39V28a38.55,38.55,0,0,1-.28,4.5c-.13,10.35-.32,19.23-.57,26.36a97.45,97.45,0,0,1,15.54,0,62.75,62.75,0,0,1,16.52.61c.37-5.07.08-12.68-.87-22.63-.19-3-.23-6.11-.14-9.28V27.4c.11-3.32.37-6.72.78-10.17a.5.5,0,0,1,1,.12c-.4,3.31-.66,6.58-.77,9.77Zm-.2-15.18a.5.5,0,0,1,1,0,37.49,37.49,0,0,0,.94,11.87.5.5,0,0,1-.48.64.51.51,0,0,1-.48-.36A38.26,38.26,0,0,1,50.34,12.57ZM14.55,26.9a.5.5,0,0,1-1-.15,21.72,21.72,0,0,0-1-11.56.5.5,0,0,1,.93-.38A22.77,22.77,0,0,1,14.55,26.9Z"/><path d="M37,4.82a9.7,9.7,0,0,1-9.46.23C27.76,11.3,37.49,11.64,37,4.82Z"/><path d="M32.21,11.51c4.13-.41,6.16-2.58,6.22-6.63L38,4.72c.41,8.75-11.51,7.49-11.47.16l-.69.22C26.49,9,28.6,11.12,32.21,11.51Z"/></g></svg>