<?xml version="1.0" encoding="UTF-8" standalone="yes"?> <svg xmlns="http://www.w3.org/2000/svg" width="40" height="40" viewBox="0 0 64 64" fill="#3686b7"><g id="Layer_9" data-name="Layer 9"><path d="M44.62,5.09C41.84,8.54,36.85,10,32,9.36c-4.85.59-9.84-.82-12.62-4.27-6.48,1-9.92,3.23-10.21,6.73-.26,5.71-1.78,12.72-4.52,20.8,2.45.59,6,1.19,10.48,1.8.13-.62.33-1.92.68-4.51a46.48,46.48,0,0,0-5.67-12.67c-.36-.53.5-1.1.84-.54A48.72,48.72,0,0,1,16.7,29.49a.53.53,0,0,1,.12.42,43.45,43.45,0,0,1,1.31,7.54C20,35.23,21,30.33,21,22.84a.5.5,0,0,1,1,0c-.06,8.48-1,13.75-3.75,15.87A39.75,39.75,0,0,1,18,44.78c2.13-1.71,3.45-4.37,3.94-7.94a.5.5,0,0,1,.56-.43A.5.5,0,0,1,23,37c-.6,4.15-2.23,7.36-5.06,9.06A40.31,40.31,0,0,1,14,58.68c4.48.87,10.51,1,18,.51h.12c7.46.54,13.5.36,18-.51A40.65,40.65,0,0,1,46.09,46C43.25,44.33,41.63,41.12,41,37a.5.5,0,0,1,.43-.56.51.51,0,0,1,.56.43c.49,3.57,1.81,6.23,3.94,7.93a39.59,39.59,0,0,1-.16-6.06c-2.77-2.12-3.69-7.39-3.75-15.87a.5.5,0,0,1,1,0c0,7.49.92,12.39,2.82,14.61a42.54,42.54,0,0,1,1.32-7.54.49.49,0,0,1,.11-.42A48.72,48.72,0,0,1,53,16.7a.5.5,0,0,1,.85.54A46.18,46.18,0,0,0,48.2,29.91c.34,2.59.54,3.89.67,4.51,4.51-.61,8-1.21,10.48-1.8-2.74-8.08-4.26-15.09-4.52-20.82C54.54,8.31,51.1,6.08,44.62,5.09Z"/><path d="M20.59,4.92c2.57,2.67,6.24,3.84,10.93,3.46a.53.53,0,0,1,.25,0h.46a.53.53,0,0,1,.25,0c4.69.38,8.36-.79,10.93-3.46A73,73,0,0,0,32,4.57h0A74.34,74.34,0,0,0,20.59,4.92Z" fill="#3686b7"/></g></svg>