<svg width="19" height="18" viewBox="0 0 19 18" fill="none" xmlns="http://www.w3.org/2000/svg">
<path id="Vector" d="M10.3784 0.632742C10.1905 0.246066 9.7935 0 9.35745 0C8.92141 0 8.52791 0.246066 8.33647 0.632742L6.05699 5.28339L0.966261 6.02862C0.540852 6.0919 0.186345 6.38718 0.0551772 6.79143C-0.0759906 7.19568 0.0303615 7.64211 0.335238 7.94091L4.02921 11.5651L3.15712 16.6868C3.08622 17.1086 3.26347 17.5375 3.61443 17.7871C3.96539 18.0367 4.4298 18.0683 4.81267 17.8679L9.361 15.46L13.9093 17.8679C14.2922 18.0683 14.7566 18.0402 15.1076 17.7871C15.4585 17.534 15.6358 17.1086 15.5649 16.6868L14.6892 11.5651L18.3832 7.94091C18.6881 7.64211 18.798 7.19568 18.6633 6.79143C18.5286 6.38718 18.1776 6.0919 17.7522 6.02862L12.6579 5.28339L10.3784 0.632742Z" fill="#3686b7"/>
</svg>
