<?xml version="1.0" encoding="UTF-8"?>
<!DOCTYPE svg PUBLIC "-//W3C//DTD SVG 1.1//EN" "http://www.w3.org/Graphics/SVG/1.1/DTD/svg11.dtd">
<!-- Creator: CorelDRAW -->
<svg xmlns="http://www.w3.org/2000/svg" xml:space="preserve" width="40px" height="40px" version="1.1" style="shape-rendering:geometricPrecision; text-rendering:geometricPrecision; image-rendering:optimizeQuality; fill-rule:#3686b7; clip-rule:evenodd"
viewBox="0 0 2000 2000"
 xmlns:xlink="http://www.w3.org/1999/xlink">
 <defs>
  <style type="text/css">
   <![CDATA[
    .fil0 {fill:none}
    .fil1 {fill:#3686b7}
   ]]>
  </style>
 </defs>
 <rect class="fil0" width="40px" height="40px"/>
 <g id="Layer_x0020_1">
  <metadata id="CorelCorpID_0Corel-Layer"/>
  <path class="fil1" d="M224 1032l0 -114c0,-11 7,-20 18,-22 125,-25 163,-222 170,-395 50,-20 99,-40 149,-60 86,-34 172,-69 258,-104 42,84 116,123 186,123 71,0 145,-40 187,-126 71,29 141,58 211,87 65,27 130,53 195,80 6,173 45,370 169,395 11,2 19,11 19,22l0 114 -234 0c-8,-31 -36,-53 -69,-53l-252 0c-33,0 -61,22 -69,53l-324 0c-8,-31 -36,-53 -69,-53l-252 0c-33,0 -60,22 -69,53l-224 0zm778 -102c1,0 3,0 4,-1 132,-51 221,-180 221,-321 0,-30 -4,-60 -11,-89 -1,-4 -4,-7 -7,-8 -4,-2 -8,-2 -11,-1 -127,54 -266,54 -393,0 -3,-1 -7,-1 -11,1 -3,1 -6,4 -7,8 -7,29 -11,59 -11,89 0,141 88,271 221,321 1,1 3,1 5,1zm-182 -385c118,43 245,43 363,0l11 -4 2 12c3,18 5,36 5,55 0,127 -78,244 -196,293l-3 1 -4 -1c-118,-49 -196,-166 -196,-293 0,-19 2,-37 5,-55l2 -12 11 4zm383 -235c15,-38 23,-85 23,-140 0,-8 4,-15 10,-19 6,-4 14,-6 22,-3l331 120c10,4 16,14 15,25 -5,44 -9,109 -7,180 -146,-60 -221,-91 -394,-163zm-790 161c1,-71 -2,-135 -7,-178 -1,-11 5,-21 15,-25l331 -120c7,-3 15,-1 22,3 6,4 10,11 10,19 0,56 9,104 24,143 -86,34 -172,68 -258,103 -45,18 -91,36 -137,55z"/>
  <path class="fil1" d="M1665 1853l-1320 0c-61,0 -111,-44 -120,-103l223 0c9,31 36,53 69,53l252 0c33,0 61,-22 69,-53l324 0c8,31 36,53 69,53l252 0c33,0 61,-22 69,-53l233 0c-9,59 -60,103 -120,103z"/>
  <path class="fil1" d="M224 1463l0 -144 224 0c9,30 36,52 69,52l252 0c33,0 61,-22 69,-52l324 0c8,30 36,52 69,52l252 0c33,0 61,-22 69,-52l234 0 0 144 -234 0c-8,-30 -36,-53 -69,-53l-252 0c-33,0 -61,23 -69,53l-324 0c-8,-30 -36,-53 -69,-53l-252 0c-33,0 -60,23 -69,53l-224 0z"/>
  <path class="fil1" d="M446 1292l-257 0c-13,0 -23,-10 -23,-23l0 -187c0,-13 10,-24 23,-24l257 0 0 234z"/>
  <polygon class="fil1" points="1159,1292 841,1292 841,1058 1159,1058 "/>
  <path class="fil1" d="M1811 1292l-257 0 0 -234 257 0c13,0 23,11 23,24l0 187c0,13 -10,23 -23,23z"/>
  <polygon class="fil1" points="769,1052 769,1052 "/>
  <polygon class="fil1" points="1483,1052 1483,1052 "/>
  <g id="_550571984">
   <path class="fil1" d="M769 1345l-252 0c-24,0 -45,-20 -45,-45l0 -250c0,-24 21,-44 45,-44l252 0c25,0 45,20 45,44l0 250c0,25 -20,45 -45,45z"/>
   <path class="fil1" d="M1483 1345l-252 0c-25,0 -45,-20 -45,-45l0 -250c0,-24 20,-44 45,-44l252 0c25,0 45,20 45,44l0 250c0,25 -20,45 -45,45z"/>
  </g>
  <path class="fil1" d="M446 1724l-257 0c-13,0 -23,-11 -23,-24l0 -187c0,-13 10,-23 23,-23l257 0 0 234z"/>
  <polygon class="fil1" points="1159,1724 841,1724 841,1490 1159,1490 "/>
  <path class="fil1" d="M1811 1724l-257 0 0 -234 257 0c13,0 23,10 23,23l0 187c0,13 -10,24 -23,24z"/>
  <polygon class="fil1" points="769,1484 769,1484 "/>
  <path class="fil1" d="M769 1776l-252 0c-24,0 -45,-20 -45,-44l0 -250c0,-25 21,-45 45,-45l252 0c25,0 45,20 45,45l0 249c0,25 -20,45 -45,45z"/>
  <polygon class="fil1" points="1483,1484 1483,1484 "/>
  <path class="fil1" d="M1483 1776l-252 0c-25,0 -45,-20 -45,-44l0 -250c0,-25 20,-45 45,-45l252 0c25,0 45,20 45,45l0 249c0,25 -20,45 -45,45z"/>
 </g>
</svg>
