<svg width="21" height="21" viewBox="0 0 21 21" fill="none" xmlns="http://www.w3.org/2000/svg">
<path d="M20.3785 17.4136C21.1984 18.2336 21.1984 19.5651 20.3785 20.3851C19.5586 21.205 18.227 21.205 17.4071 20.3851L10.5 13.4714L3.58637 20.3785C2.76644 21.1984 1.43487 21.1984 0.614946 20.3785C-0.204982 19.5586 -0.204982 18.227 0.614946 17.4071L7.52858 10.5L0.621505 3.58637C-0.198423 2.76644 -0.198423 1.43487 0.621505 0.614946C1.44143 -0.204982 2.773 -0.204982 3.59293 0.614946L10.5 7.52858L17.4136 0.621508C18.2336 -0.19842 19.5651 -0.19842 20.3851 0.621508C21.205 1.44144 21.205 2.773 20.3851 3.59293L13.4714 10.5L20.3785 17.4136Z" fill="white"/>
</svg>
